<svg width="43" height="42" viewBox="0 0 43 42" fill="none" xmlns="http://www.w3.org/2000/svg">
<path d="M13.1 30.8001C16.1928 30.8001 18.7 28.2929 18.7 25.2001C18.7 22.1073 16.1928 19.6001 13.1 19.6001C10.0072 19.6001 7.5 22.1073 7.5 25.2001C7.5 28.2929 10.0072 30.8001 13.1 30.8001Z" fill="white"/>
<path d="M26.3999 35C28.3329 35 29.8999 33.433 29.8999 31.5C29.8999 29.567 28.3329 28 26.3999 28C24.4669 28 22.8999 29.567 22.8999 31.5C22.8999 33.433 24.4669 35 26.3999 35Z" fill="white"/>
<path d="M27.1 23.8C31.7391 23.8 35.5 20.0392 35.5 15.4C35.5 10.7608 31.7391 7 27.1 7C22.4608 7 18.7 10.7608 18.7 15.4C18.7 20.0392 22.4608 23.8 27.1 23.8Z" fill="white"/>
</svg>
