<svg width="28" height="28" viewBox="0 0 28 28" fill="none" xmlns="http://www.w3.org/2000/svg">
<path d="M8.40033 20.5333C10.4622 20.5333 12.1337 18.8618 12.1337 16.8C12.1337 14.7381 10.4622 13.0667 8.40033 13.0667C6.33846 13.0667 4.66699 14.7381 4.66699 16.8C4.66699 18.8618 6.33846 20.5333 8.40033 20.5333Z" fill="#322F37"/>
<path d="M17.2669 23.3333C18.5556 23.3333 19.6003 22.2886 19.6003 21C19.6003 19.7113 18.5556 18.6666 17.2669 18.6666C15.9783 18.6666 14.9336 19.7113 14.9336 21C14.9336 22.2886 15.9783 23.3333 17.2669 23.3333Z" fill="#322F37"/>
<path d="M17.7338 15.8666C20.8266 15.8666 23.3338 13.3594 23.3338 10.2666C23.3338 7.17383 20.8266 4.66663 17.7338 4.66663C14.641 4.66663 12.1338 7.17383 12.1338 10.2666C12.1338 13.3594 14.641 15.8666 17.7338 15.8666Z" fill="#322F37"/>
</svg>
