<svg width="18" height="17" viewBox="0 0 18 17" fill="none" xmlns="http://www.w3.org/2000/svg">
<path d="M0.9 0H17.1C17.3387 0 17.5676 0.0944953 17.7364 0.262698C17.9052 0.430901 18 0.659033 18 0.896907V15.2474C18 15.4853 17.9052 15.7134 17.7364 15.8816C17.5676 16.0498 17.3387 16.1443 17.1 16.1443H0.9C0.661305 16.1443 0.432387 16.0498 0.263604 15.8816C0.0948211 15.7134 0 15.4853 0 15.2474V0.896907C0 0.659033 0.0948211 0.430901 0.263604 0.262698C0.432387 0.0944953 0.661305 0 0.9 0ZM16.2 3.80109L9.0648 10.1691L1.8 3.78136V14.3505H16.2V3.80109ZM2.2599 1.79381L9.0549 7.76901L15.7518 1.79381H2.2599Z" fill="black"/>
</svg>
