<svg width="80" height="59" viewBox="0 0 80 59" fill="none" xmlns="http://www.w3.org/2000/svg">
<path d="M68.5714 2.42389C64.7124 2.00826 61.0019 1.73117 57.1429 1.45408C53.2839 1.17699 49.5733 1.03845 45.7143 1.03845C43.7848 1.03845 41.8553 0.899902 39.7774 0.899902C37.9963 0.899902 36.0668 0.899903 34.2857 1.03845C30.4267 1.03845 26.7161 1.31554 22.8571 1.45408C18.9981 1.73117 15.2876 2.00826 11.4286 2.42389C7.56957 2.83952 3.859 3.25515 0 3.80933V14.6158C3.859 14.0616 7.56957 13.5074 11.4286 13.0918C15.1391 12.6762 18.9981 12.3991 22.8571 12.122C26.7161 11.8449 30.4267 11.7063 34.2857 11.7063C36.0668 11.7063 37.9963 11.7063 39.7774 11.7063C41.7069 11.7063 43.6364 11.7063 45.7143 11.7063C49.5733 11.8449 53.2839 11.9834 57.1429 12.122C61.0019 12.3991 64.7124 12.6762 68.5714 13.0918C72.4304 13.5074 76.141 14.0616 80 14.6158V3.80933C76.2894 3.25515 72.4304 2.83952 68.5714 2.42389Z" fill="black"/>
<path d="M68.5714 24.3134C64.8608 23.8978 61.0018 23.4821 57.1428 23.3436C53.2838 23.0665 49.5733 22.928 45.7143 22.7894C43.7848 22.7894 41.8553 22.6509 39.7774 22.6509C37.9963 22.6509 36.0668 22.6509 34.2857 22.6509C30.4267 22.7894 26.7161 22.928 22.8571 23.2051C18.9981 23.4821 15.2876 23.7592 11.4286 24.1749C7.56957 24.5905 3.71057 25.1447 0 25.6989V36.5053V58.1182H11.4286V34.9813C15.2876 34.5657 18.9981 34.15 22.8571 33.873V58.1182H34.1373V33.4573C35.9184 33.4573 37.8479 33.3188 39.6289 33.3188C41.5584 33.3188 43.4879 33.3188 45.5659 33.4573V58.2567H56.9944V33.873C60.8534 34.15 64.564 34.4271 68.423 34.9813V58.1182H79.8516V36.6438V25.8374C76.2894 25.2832 72.4304 24.729 68.5714 24.3134Z" fill="black"/>
</svg>
