<svg width="42" height="42" viewBox="0 0 42 42" fill="none" xmlns="http://www.w3.org/2000/svg">
<g clip-path="url(#clip0_1148_29579)">
<path d="M13.4088 16.8527L7.83525 14.384V13.7225L13.4088 10.9231V11.9743L9.13769 14.006L13.4088 15.8014V16.8527Z" fill="white"/>
<path d="M18.3518 18.1639H17.1197V12.5649C17.1197 12.3681 17.1197 12.1869 17.1197 12.0216C17.1275 11.8483 17.1354 11.683 17.1432 11.5255C17.151 11.3601 17.1588 11.2026 17.1666 11.053C17.065 11.1554 16.9594 11.2538 16.8498 11.3483C16.7403 11.4428 16.6152 11.553 16.4744 11.679L15.5591 12.4232L14.9255 11.62L17.3192 9.73003H18.3518V18.1639Z" fill="white"/>
<path d="M26.8853 13.9351C26.8853 14.6202 26.8305 15.2305 26.721 15.766C26.6193 16.3015 26.455 16.7582 26.2282 17.1362C26.0091 17.5063 25.7158 17.7898 25.3481 17.9867C24.9883 18.1835 24.5542 18.282 24.0457 18.282C23.4043 18.282 22.8763 18.1087 22.4617 17.7622C22.0471 17.4158 21.7381 16.9197 21.5347 16.2739C21.3313 15.6203 21.2296 14.8407 21.2296 13.9351C21.2296 13.0217 21.3196 12.2421 21.4995 11.5963C21.6872 10.9506 21.9884 10.4584 22.403 10.1198C22.8176 9.77334 23.3652 9.6001 24.0457 9.6001C24.6871 9.6001 25.2152 9.77334 25.6298 10.1198C26.0522 10.4584 26.3651 10.9506 26.5685 11.5963C26.7797 12.2421 26.8853 13.0217 26.8853 13.9351ZM22.4734 13.9351C22.4734 14.6675 22.5242 15.2778 22.6259 15.766C22.7276 16.2542 22.8919 16.6204 23.1187 16.8645C23.3534 17.1086 23.6624 17.2307 24.0457 17.2307C24.429 17.2307 24.7341 17.1126 24.9609 16.8763C25.1956 16.6322 25.3638 16.266 25.4655 15.7778C25.575 15.2817 25.6298 14.6675 25.6298 13.9351C25.6298 13.2028 25.575 12.5964 25.4655 12.1161C25.3638 11.6278 25.1956 11.2617 24.9609 11.0175C24.7341 10.7734 24.429 10.6514 24.0457 10.6514C23.6624 10.6514 23.3534 10.7734 23.1187 11.0175C22.8919 11.2617 22.7276 11.6278 22.6259 12.1161C22.5242 12.5964 22.4734 13.2028 22.4734 13.9351Z" fill="white"/>
<path d="M33.6 13.9351C33.6 14.6202 33.5453 15.2305 33.4358 15.766C33.3341 16.3015 33.1698 16.7582 32.943 17.1362C32.7239 17.5063 32.4306 17.7898 32.0629 17.9867C31.7031 18.1835 31.269 18.282 30.7605 18.282C30.1191 18.282 29.591 18.1087 29.1764 17.7622C28.7619 17.4158 28.4529 16.9197 28.2495 16.2739C28.0461 15.6203 27.9444 14.8407 27.9444 13.9351C27.9444 13.0217 28.0344 12.2421 28.2143 11.5963C28.402 10.9506 28.7032 10.4584 29.1178 10.1198C29.5324 9.77334 30.0799 9.6001 30.7605 9.6001C31.4019 9.6001 31.93 9.77334 32.3445 10.1198C32.767 10.4584 33.0799 10.9506 33.2832 11.5963C33.4944 12.2421 33.6 13.0217 33.6 13.9351ZM29.1882 13.9351C29.1882 14.6675 29.239 15.2778 29.3407 15.766C29.4424 16.2542 29.6067 16.6204 29.8335 16.8645C30.0682 17.1086 30.3772 17.2307 30.7605 17.2307C31.1438 17.2307 31.4489 17.1126 31.6757 16.8763C31.9104 16.6322 32.0786 16.266 32.1803 15.7778C32.2898 15.2817 32.3445 14.6675 32.3445 13.9351C32.3445 13.2028 32.2898 12.5964 32.1803 12.1161C32.0786 11.6278 31.9104 11.2617 31.6757 11.0175C31.4489 10.7734 31.1438 10.6514 30.7605 10.6514C30.3772 10.6514 30.0682 10.7734 29.8335 11.0175C29.6067 11.2617 29.4424 11.6278 29.3407 12.1161C29.239 12.5964 29.1882 13.2028 29.1882 13.9351Z" fill="white"/>
<path d="M13.4557 28.0533C13.4557 28.7384 13.4009 29.3486 13.2914 29.8841C13.1897 30.4196 13.0255 30.8763 12.7986 31.2543C12.5796 31.6244 12.2862 31.9079 11.9186 32.1048C11.5587 32.3017 11.1246 32.4001 10.6161 32.4001C9.97469 32.4001 9.44668 32.2269 9.03209 31.8804C8.6175 31.5339 8.30851 31.0378 8.10512 30.392C7.90174 29.7384 7.80005 28.9588 7.80005 28.0533C7.80005 27.1398 7.89001 26.3602 8.06992 25.7145C8.25766 25.0687 8.55883 24.5766 8.97342 24.2379C9.38801 23.8915 9.93558 23.7182 10.6161 23.7182C11.2576 23.7182 11.7856 23.8915 12.2002 24.2379C12.6226 24.5766 12.9355 25.0687 13.1389 25.7145C13.3501 26.3602 13.4557 27.1398 13.4557 28.0533ZM9.04382 28.0533C9.04382 28.7856 9.09467 29.3959 9.19636 29.8841C9.29805 30.3724 9.46232 30.7385 9.68917 30.9826C9.92385 31.2268 10.2328 31.3488 10.6161 31.3488C10.9994 31.3488 11.3045 31.2307 11.5314 30.9945C11.766 30.7503 11.9342 30.3842 12.0359 29.8959C12.1454 29.3998 12.2002 28.7856 12.2002 28.0533C12.2002 27.3209 12.1454 26.7145 12.0359 26.2342C11.9342 25.746 11.766 25.3798 11.5314 25.1357C11.3045 24.8916 10.9994 24.7695 10.6161 24.7695C10.2328 24.7695 9.92385 24.8916 9.68917 25.1357C9.46232 25.3798 9.29805 25.746 9.19636 26.2342C9.09467 26.7145 9.04382 27.3209 9.04382 28.0533Z" fill="white"/>
<path d="M18.3518 32.282H17.1197V26.683C17.1197 26.4862 17.1197 26.3051 17.1197 26.1397C17.1275 25.9665 17.1354 25.8011 17.1432 25.6436C17.151 25.4782 17.1588 25.3207 17.1666 25.1711C17.065 25.2735 16.9594 25.3719 16.8498 25.4664C16.7403 25.5609 16.6152 25.6711 16.4744 25.7971L15.5591 26.5413L14.9255 25.7381L17.3192 23.8482H18.3518V32.282Z" fill="white"/>
<path d="M26.8853 28.0533C26.8853 28.7384 26.8305 29.3486 26.721 29.8841C26.6193 30.4196 26.455 30.8763 26.2282 31.2543C26.0091 31.6244 25.7158 31.9079 25.3481 32.1048C24.9883 32.3017 24.5542 32.4001 24.0457 32.4001C23.4043 32.4001 22.8763 32.2269 22.4617 31.8804C22.0471 31.5339 21.7381 31.0378 21.5347 30.392C21.3313 29.7384 21.2296 28.9588 21.2296 28.0533C21.2296 27.1398 21.3196 26.3602 21.4995 25.7145C21.6872 25.0687 21.9884 24.5766 22.403 24.2379C22.8176 23.8915 23.3652 23.7182 24.0457 23.7182C24.6871 23.7182 25.2152 23.8915 25.6298 24.2379C26.0522 24.5766 26.3651 25.0687 26.5685 25.7145C26.7797 26.3602 26.8853 27.1398 26.8853 28.0533ZM22.4734 28.0533C22.4734 28.7856 22.5242 29.3959 22.6259 29.8841C22.7276 30.3724 22.8919 30.7385 23.1187 30.9826C23.3534 31.2268 23.6624 31.3488 24.0457 31.3488C24.429 31.3488 24.7341 31.2307 24.9609 30.9945C25.1956 30.7503 25.3638 30.3842 25.4655 29.8959C25.575 29.3998 25.6298 28.7856 25.6298 28.0533C25.6298 27.3209 25.575 26.7145 25.4655 26.2342C25.3638 25.746 25.1956 25.3798 24.9609 25.1357C24.7341 24.8916 24.429 24.7695 24.0457 24.7695C23.6624 24.7695 23.3534 24.8916 23.1187 25.1357C22.8919 25.3798 22.7276 25.746 22.6259 26.2342C22.5242 26.7145 22.4734 27.3209 22.4734 28.0533Z" fill="white"/>
<path d="M27.9796 29.9196L32.2507 28.1241L27.9796 26.0924V25.0412L33.5531 27.8406V28.5021L27.9796 30.9708V29.9196Z" fill="white"/>
</g>
<defs>
<clipPath id="clip0_1148_29579">
<rect width="42" height="42" fill="white"/>
</clipPath>
</defs>
</svg>
