<svg width="28" height="28" viewBox="0 0 28 28" fill="none" xmlns="http://www.w3.org/2000/svg">
<g clip-path="url(#clip0_2837_13525)">
<path d="M8.93933 11.2351L5.22366 9.58929V9.1483L8.93933 7.28199V7.98284L6.09196 9.3373L8.93933 10.5343V11.2351Z" fill="#322F37"/>
<path d="M12.2347 12.1092H11.4133V8.37658C11.4133 8.24533 11.4133 8.12459 11.4133 8.01434C11.4185 7.89885 11.4237 7.7886 11.429 7.6836C11.4342 7.57336 11.4394 7.46836 11.4446 7.36861C11.3768 7.43686 11.3064 7.50249 11.2334 7.56548C11.1604 7.62848 11.0769 7.70198 10.9831 7.78598L10.3729 8.28208L9.95051 7.7466L11.5463 6.48665H12.2347V12.1092Z" fill="#322F37"/>
<path d="M17.9237 9.29005C17.9237 9.74678 17.8872 10.1536 17.8142 10.5106C17.7464 10.8676 17.6368 11.1721 17.4856 11.4241C17.3396 11.6708 17.144 11.8598 16.8989 11.9911C16.659 12.1223 16.3696 12.1879 16.0306 12.1879C15.603 12.1879 15.251 12.0724 14.9746 11.8415C14.6982 11.6105 14.4922 11.2797 14.3566 10.8492C14.221 10.4135 14.1532 9.89378 14.1532 9.29005C14.1532 8.68107 14.2132 8.16134 14.3332 7.73085C14.4583 7.30037 14.6591 6.97225 14.9355 6.74651C15.2119 6.51552 15.5769 6.40002 16.0306 6.40002C16.4583 6.40002 16.8103 6.51552 17.0867 6.74651C17.3683 6.97225 17.5769 7.30037 17.7125 7.73085C17.8533 8.16134 17.9237 8.68107 17.9237 9.29005ZM14.9824 9.29005C14.9824 9.77828 15.0163 10.1851 15.0841 10.5106C15.1519 10.8361 15.2614 11.0802 15.4127 11.243C15.5691 11.4057 15.7751 11.4871 16.0306 11.4871C16.2862 11.4871 16.4896 11.4083 16.6408 11.2509C16.7972 11.0881 16.9094 10.844 16.9772 10.5185C17.0502 10.1878 17.0867 9.77828 17.0867 9.29005C17.0867 8.80181 17.0502 8.39758 16.9772 8.07734C16.9094 7.75185 16.7972 7.50774 16.6408 7.34499C16.4896 7.18225 16.2862 7.10087 16.0306 7.10087C15.7751 7.10087 15.5691 7.18225 15.4127 7.34499C15.2614 7.50774 15.1519 7.75185 15.0841 8.07734C15.0163 8.39758 14.9824 8.80181 14.9824 9.29005Z" fill="#322F37"/>
<path d="M22.4002 9.29005C22.4002 9.74678 22.3637 10.1536 22.2907 10.5106C22.2229 10.8676 22.1134 11.1721 21.9621 11.4241C21.8161 11.6708 21.6206 11.8598 21.3755 11.9911C21.1356 12.1223 20.8461 12.1879 20.5072 12.1879C20.0795 12.1879 19.7275 12.0724 19.4511 11.8415C19.1747 11.6105 18.9687 11.2797 18.8332 10.8492C18.6976 10.4135 18.6298 9.89378 18.6298 9.29005C18.6298 8.68107 18.6897 8.16134 18.8097 7.73085C18.9348 7.30037 19.1356 6.97225 19.412 6.74651C19.6884 6.51552 20.0535 6.40002 20.5072 6.40002C20.9348 6.40002 21.2868 6.51552 21.5632 6.74651C21.8448 6.97225 22.0534 7.30037 22.189 7.73085C22.3298 8.16134 22.4002 8.68107 22.4002 9.29005ZM19.4589 9.29005C19.4589 9.77828 19.4928 10.1851 19.5606 10.5106C19.6284 10.8361 19.738 11.0802 19.8892 11.243C20.0456 11.4057 20.2516 11.4871 20.5072 11.4871C20.7627 11.4871 20.9661 11.4083 21.1173 11.2509C21.2738 11.0881 21.3859 10.844 21.4537 10.5185C21.5267 10.1878 21.5632 9.77828 21.5632 9.29005C21.5632 8.80181 21.5267 8.39758 21.4537 8.07734C21.3859 7.75185 21.2738 7.50774 21.1173 7.34499C20.9661 7.18225 20.7627 7.10087 20.5072 7.10087C20.2516 7.10087 20.0456 7.18225 19.8892 7.34499C19.738 7.50774 19.6284 7.75185 19.5606 8.07734C19.4928 8.39758 19.4589 8.80181 19.4589 9.29005Z" fill="#322F37"/>
<path d="M8.97062 18.7021C8.97062 19.1589 8.93412 19.5657 8.86111 19.9227C8.79331 20.2797 8.6838 20.5842 8.53256 20.8362C8.38654 21.0829 8.19098 21.2719 7.94588 21.4032C7.70599 21.5344 7.41656 21.6 7.07759 21.6C6.64996 21.6 6.29795 21.4845 6.02155 21.2535C5.74516 21.0225 5.53917 20.6918 5.40358 20.2613C5.26799 19.8256 5.2002 19.3059 5.2002 18.7021C5.2002 18.0931 5.26017 17.5734 5.38011 17.1429C5.50527 16.7124 5.70605 16.3843 5.98244 16.1586C6.25883 15.9276 6.62388 15.8121 7.07759 15.8121C7.50521 15.8121 7.85722 15.9276 8.13362 16.1586C8.41523 16.3843 8.62383 16.7124 8.75941 17.1429C8.90022 17.5734 8.97062 18.0931 8.97062 18.7021ZM6.02938 18.7021C6.02938 19.1904 6.06327 19.5972 6.13107 19.9227C6.19886 20.2482 6.30838 20.4923 6.45961 20.6551C6.61606 20.8178 6.82205 20.8992 7.07759 20.8992C7.33312 20.8992 7.5365 20.8204 7.68774 20.6629C7.84419 20.5002 7.95631 20.2561 8.0241 19.9306C8.09711 19.5998 8.13362 19.1904 8.13362 18.7021C8.13362 18.2139 8.09711 17.8097 8.0241 17.4894C7.95631 17.1639 7.84419 16.9198 7.68774 16.7571C7.5365 16.5943 7.33312 16.513 7.07759 16.513C6.82205 16.513 6.61606 16.5943 6.45961 16.7571C6.30838 16.9198 6.19886 17.1639 6.13107 17.4894C6.06327 17.8097 6.02938 18.2139 6.02938 18.7021Z" fill="#322F37"/>
<path d="M12.2347 21.5213H11.4133V17.7887C11.4133 17.6574 11.4133 17.5367 11.4133 17.4264C11.4185 17.3109 11.4237 17.2007 11.429 17.0957C11.4342 16.9854 11.4394 16.8804 11.4446 16.7807C11.3768 16.8489 11.3064 16.9146 11.2334 16.9776C11.1604 17.0406 11.0769 17.1141 10.9831 17.1981L10.3729 17.6942L9.95051 17.1587L11.5463 15.8987H12.2347V21.5213Z" fill="#322F37"/>
<path d="M17.9237 18.7021C17.9237 19.1589 17.8872 19.5657 17.8142 19.9227C17.7464 20.2797 17.6368 20.5842 17.4856 20.8362C17.3396 21.0829 17.144 21.2719 16.8989 21.4032C16.659 21.5344 16.3696 21.6 16.0306 21.6C15.603 21.6 15.251 21.4845 14.9746 21.2535C14.6982 21.0225 14.4922 20.6918 14.3566 20.2613C14.221 19.8256 14.1532 19.3059 14.1532 18.7021C14.1532 18.0931 14.2132 17.5734 14.3332 17.1429C14.4583 16.7124 14.6591 16.3843 14.9355 16.1586C15.2119 15.9276 15.5769 15.8121 16.0306 15.8121C16.4583 15.8121 16.8103 15.9276 17.0867 16.1586C17.3683 16.3843 17.5769 16.7124 17.7125 17.1429C17.8533 17.5734 17.9237 18.0931 17.9237 18.7021ZM14.9824 18.7021C14.9824 19.1904 15.0163 19.5972 15.0841 19.9227C15.1519 20.2482 15.2614 20.4923 15.4127 20.6551C15.5691 20.8178 15.7751 20.8992 16.0306 20.8992C16.2862 20.8992 16.4896 20.8204 16.6408 20.6629C16.7972 20.5002 16.9094 20.2561 16.9772 19.9306C17.0502 19.5998 17.0867 19.1904 17.0867 18.7021C17.0867 18.2139 17.0502 17.8097 16.9772 17.4894C16.9094 17.1639 16.7972 16.9198 16.6408 16.7571C16.4896 16.5943 16.2862 16.513 16.0306 16.513C15.7751 16.513 15.5691 16.5943 15.4127 16.7571C15.2614 16.9198 15.1519 17.1639 15.0841 17.4894C15.0163 17.8097 14.9824 18.2139 14.9824 18.7021Z" fill="#322F37"/>
<path d="M18.6532 19.9463L21.5006 18.7494L18.6532 17.3949V16.6941L22.3689 18.5604V19.0014L18.6532 20.6472V19.9463Z" fill="#322F37"/>
</g>
<defs>
<clipPath id="clip0_2837_13525">
<rect width="28" height="28" fill="white"/>
</clipPath>
</defs>
</svg>
