<svg width="1440" height="747" viewBox="0 0 1440 747" fill="none" xmlns="http://www.w3.org/2000/svg">
<path d="M-199 693.31V-76H1449V689.502C1448.35 689.291 1447.66 689.069 1446.93 688.838C1440.41 686.768 1430.92 683.911 1418.92 680.74C1394.95 674.4 1360.96 666.797 1320.88 661.728C1240.8 651.602 1135.88 651.522 1037.7 692.316C941.463 732.302 870.343 744.201 807.801 740.299C745.138 736.389 690.593 716.61 627.15 692.255C563.491 667.817 502.559 649.804 435.477 646.971C368.341 644.134 295.432 656.514 207.733 692.301C122.076 727.255 19.5158 727.37 -62.1301 718.528C-102.865 714.117 -138.203 707.499 -163.35 701.985C-175.92 699.228 -185.935 696.75 -192.796 694.964C-195.291 694.314 -197.369 693.756 -199 693.31Z" fill="white" stroke="#22E974" stroke-width="12"/>
</svg>
