<svg width="610" height="371" viewBox="0 0 610 371" fill="none" xmlns="http://www.w3.org/2000/svg">
<path d="M595.682 334.759L596.18 333.847C603.757 319.983 611.206 298.466 606.563 271.244C603.844 255.295 596.963 237.313 583.418 217.69C578.101 209.986 570.313 202.521 561.72 195.166C557.534 191.583 553.187 188.051 548.867 184.541L548.553 184.285C544.138 180.698 539.756 177.133 535.656 173.594C527.494 166.549 520.268 159.459 516.041 152.268C511.757 144.98 510.439 137.36 514.533 129.628C525.876 108.201 524.326 89.8085 519.215 76.0104C514.076 62.1374 505.302 52.8399 502.172 49.8577C470.384 19.6031 408.45 -1.28162 353.359 2.42565C350.53 2.6179 347.726 2.86724 344.948 3.19075L344.946 3.19099C338.578 3.92607 332.333 5.01172 326.276 6.4688L326.275 6.46892C322.012 7.49336 317.835 8.70324 313.779 10.1052L313.776 10.1062C311.22 10.9855 308.716 11.947 306.253 12.9838C302.589 14.5334 299.036 16.2523 295.61 18.152C294.717 18.6486 293.833 19.1578 292.955 19.6798L292.955 19.68C287.241 23.0769 281.911 27.003 277.05 31.4885C268.052 39.8054 259.02 45.2602 249.978 48.66C228.132 56.878 206.404 52.9732 185.726 49.257C182.274 48.6366 178.852 48.0216 175.463 47.469C151.612 43.5801 129.056 42.6088 107.411 62.577L106.055 61.107L107.411 62.577C97.9412 71.3126 94.1594 79 92.8888 86.0405C91.7207 92.5128 92.6283 98.5818 93.5723 104.894C93.6715 105.558 93.7711 106.224 93.8687 106.893C94.8803 113.83 95.6608 121.082 92.857 128.686C90.0439 136.315 83.7513 143.991 71.3123 152.188C14.9755 189.312 0.966632 233.619 2.23809 270.84C3.04264 294.388 9.97066 315.207 16.3849 329.691L16.3851 329.691C21.7699 341.858 33.7708 349.73 47.0579 349.772C83.0324 349.89 158.521 350.112 225.017 350.304C258.265 350.4 289.264 350.489 311.952 350.554L338.991 350.631L346.414 350.652L348.353 350.658L348.848 350.659L348.973 350.66L349.004 350.66L349.01 350.66L595.682 334.759ZM595.682 334.759C594.327 337.184 592.974 339.359 591.695 341.274L591.69 341.283L591.684 341.291C591.638 341.362 591.619 341.39 591.604 341.41L591.585 341.437L591.567 341.465C587.7 347.23 581.21 350.683 574.271 350.683C533.518 350.683 392.859 350.675 349.012 350.66L595.682 334.759Z" stroke="#F3F3F9" stroke-width="4"/>
<path d="M208.094 270.988L206.9 270.834C206.928 270.62 207.636 265.54 212.638 262.374C217.059 259.576 215.547 250.828 215.532 250.74L216.716 250.525C216.734 250.621 217.142 252.93 216.948 255.656C216.686 259.361 215.419 262.036 213.278 263.392C208.749 266.261 208.097 270.943 208.092 270.99L208.094 270.988Z" fill="#283689"/>
<path d="M215.794 271.199C215.764 271.143 212.862 265.688 218.099 262.37C222.424 259.633 218.585 251.127 218.545 251.041L219.638 250.537C219.681 250.633 220.713 252.902 221.157 255.592C221.766 259.305 220.933 262 218.741 263.386C214.447 266.104 216.749 270.435 216.85 270.616L215.794 271.194V271.199Z" fill="#283689"/>
<path d="M598.001 347.696C597.9 347.923 597.802 348.147 597.699 348.371C597.497 348.82 597.296 349.261 597.094 349.695C595.742 352.617 594.394 355.243 593.117 357.56C593.074 357.641 593.031 357.717 592.986 357.797C588.747 365.461 581.634 370.046 574.027 370.046C557.859 370.046 525.968 370.046 490.637 370.041H485.821C466.564 370.041 446.462 370.041 427.462 370.034H421.785C391.219 370.034 364.084 370.026 348.767 370.019C348.767 370.019 271.742 369.754 192.896 369.477C191.561 369.472 190.226 369.467 188.891 369.462C165.939 369.378 142.94 369.298 121.752 369.22C119.009 369.21 116.299 369.199 113.621 369.192C86.4103 369.096 62.7385 369.005 46.8096 368.942C35.6563 368.899 25.3619 362.544 18.7299 352.14C18.3798 351.593 18.0422 351.033 17.7148 350.464C16.405 348.195 15.264 345.75 14.3144 343.156C7.83602 325.418 0.813576 299.866 0 270.91H608.298C612.973 304.146 605.623 330.531 598.001 347.698V347.696Z" fill="#F3F3F9"/>
<path d="M466.278 331.774H124.226L158.701 296.627H436.233L466.278 331.774Z" fill="#322F37"/>
<path d="M466.275 331.773H124.226V336.263H466.275V331.773Z" fill="#1D1A22"/>
<path d="M433.293 303.996H160.672V305.194H433.293V303.996Z" fill="#1D1A22"/>
<path d="M440.606 311.34H151.431V312.54H440.606V311.34Z" fill="#1D1A22"/>
<path d="M448.308 319.457H143.731V320.654H448.308V319.457Z" fill="#1D1A22"/>
<path d="M174.38 298.584H162.055V302.285H174.38V298.584Z" fill="#1D1A22"/>
<path d="M268.795 298.584H256.468V302.285H268.795V298.584Z" fill="#1D1A22"/>
<path d="M288.618 298.584H276.291V302.285H288.618V298.584Z" fill="#1D1A22"/>
<path d="M341.314 298.584H328.99V302.285H341.314V298.584Z" fill="#1D1A22"/>
<path d="M359.646 298.584H347.319V302.285H359.646V298.584Z" fill="#1D1A22"/>
<path d="M379.466 298.584H367.142V302.285H379.466V298.584Z" fill="#1D1A22"/>
<path d="M593.424 270.912H591.004C585.541 262.918 580.805 262.547 571.627 261.834C568.803 261.617 565.602 261.367 561.854 260.861C553.494 259.736 550.746 255.247 547.564 250.046C546.124 247.691 544.638 245.256 542.464 242.796C535.791 235.24 520.792 237.446 520.641 237.469L520.331 235.475C520.991 235.374 536.57 233.072 543.973 241.457C546.262 244.053 547.869 246.678 549.285 248.992C552.433 254.142 554.71 257.861 562.123 258.859C565.813 259.356 568.984 259.6 571.78 259.82C581.762 260.596 587.107 261.009 593.422 270.912H593.424Z" fill="#938F99"/>
<path d="M467.643 224.631H512.913C517.009 224.631 520.334 227.959 520.334 232.058V277.367C520.334 281.466 517.009 284.793 512.913 284.793H467.643C463.547 284.793 460.222 281.466 460.222 277.367V232.06C460.222 227.961 463.547 224.633 467.643 224.633V224.631Z" fill="#CAC4D0"/>
<path d="M510.881 253.357C510.881 254.436 510.798 255.497 510.639 256.533C510.601 256.785 510.556 257.035 510.505 257.284C510.165 259.064 509.594 260.763 508.828 262.349C508.755 262.5 508.679 262.651 508.601 262.8C507.261 265.409 505.377 267.693 503.103 269.511C502.979 269.609 502.856 269.708 502.73 269.801C500.415 271.566 497.71 272.851 494.77 273.507H494.768L494.239 273.62H494.236C493.491 273.766 492.735 273.872 491.962 273.933C491.71 273.955 491.461 273.973 491.209 273.981H491.206C490.891 274.001 490.572 274.006 490.254 274.006C488.058 274.006 485.942 273.66 483.955 273.023C483.645 272.924 483.34 272.821 483.035 272.705C482.325 272.443 481.635 272.14 480.965 271.797C480.814 271.722 480.665 271.646 480.516 271.568C477.648 270.028 475.189 267.829 473.335 265.177C473.245 265.049 473.152 264.918 473.063 264.787C471.791 262.873 470.829 260.735 470.25 258.444C470.172 258.131 470.099 257.816 470.036 257.496C469.877 256.722 469.764 255.936 469.696 255.134C469.681 254.935 469.663 254.736 469.655 254.536C469.633 254.141 469.62 253.75 469.62 253.357C469.62 251.209 469.948 249.142 470.555 247.193C470.608 247.022 470.665 246.85 470.723 246.679C471.688 243.843 473.257 241.286 475.27 239.156C475.381 239.043 475.486 238.929 475.602 238.818C477.637 236.759 480.103 235.13 482.859 234.071C483.018 234.008 483.174 233.95 483.335 233.895C485.499 233.124 487.829 232.705 490.254 232.705C491.415 232.705 492.554 232.801 493.662 232.987C493.859 233.018 494.053 233.053 494.249 233.096C494.388 233.121 494.526 233.149 494.665 233.182C494.937 233.242 495.206 233.305 495.476 233.378C498.453 234.152 501.173 235.581 503.468 237.5C503.591 237.601 503.71 237.702 503.831 237.81C506.256 239.933 508.178 242.612 509.4 245.65C509.465 245.804 509.526 245.96 509.584 246.117C510.087 247.458 510.455 248.869 510.669 250.329C510.71 250.601 510.745 250.876 510.77 251.151C510.848 251.879 510.891 252.616 510.891 253.362L510.881 253.357Z" fill="#E27227"/>
<path d="M503.102 269.51C502.978 269.609 502.855 269.707 502.729 269.8L499.981 266.735L499.666 266.384L494.019 260.079L493.704 259.729L487.329 252.615L487.014 252.265L480.72 245.239L480.405 244.886L475.269 239.158C475.38 239.045 475.486 238.931 475.602 238.82L480.758 244.573L481.072 244.924L487.367 251.949L487.682 252.3L494.057 259.414L494.372 259.764L500.021 266.069L500.334 266.42L503.104 269.51H503.102Z" fill="#1C3870"/>
<path d="M508.827 262.35C508.754 262.502 508.679 262.653 508.601 262.802L506.712 260.692L506.397 260.341L500.75 254.039L500.435 253.688L494.06 246.574L493.745 246.224L487.448 239.196L487.135 238.845L482.858 234.073C483.017 234.01 483.173 233.952 483.334 233.896L487.485 238.533L487.8 238.883L494.095 245.909L494.41 246.259L500.785 253.373L501.1 253.724L506.747 260.029L507.062 260.379L508.827 262.35Z" fill="#1C3870"/>
<path d="M510.661 250.326C510.702 250.598 510.737 250.873 510.762 251.148L507.732 247.77L507.42 247.419L501.039 240.303L500.727 239.952L494.657 233.184C494.929 233.244 495.198 233.307 495.468 233.38L501.077 239.64L501.392 239.99L507.767 247.107L508.079 247.457L510.656 250.331L510.661 250.326Z" fill="#1C3870"/>
<path d="M494.765 273.508L494.236 273.622H494.234L493.375 272.661L493.062 272.311L487.413 266.008L487.098 265.658L480.725 258.544L480.41 258.191L474.113 251.168L473.799 250.815L470.552 247.192C470.605 247.021 470.663 246.849 470.72 246.678L474.146 250.502L474.461 250.852L480.758 257.878L481.07 258.229L487.45 265.343L487.763 265.693L493.412 271.998L493.727 272.349L494.765 273.508Z" fill="#1C3870"/>
<path d="M494.241 233.095L487.795 238.883L487.443 239.195L481.068 244.923L480.718 245.238L474.461 250.852L474.111 251.167L469.69 255.133C469.675 254.934 469.657 254.735 469.65 254.535L473.796 250.812L474.146 250.499L480.403 244.883L480.753 244.57L487.133 238.842L487.483 238.53L493.657 232.986C493.853 233.017 494.047 233.052 494.244 233.095H494.241Z" fill="#1C3870"/>
<path d="M503.823 237.806L501.392 239.984L501.04 240.299L494.405 246.256L494.055 246.572L487.675 252.297L487.325 252.612L481.068 258.226L480.72 258.541L475.313 263.391L474.962 263.706L473.328 265.174C473.237 265.045 473.144 264.914 473.056 264.783L474.65 263.356L475 263.041L480.403 258.188L480.753 257.875L487.007 252.261L487.357 251.946L493.738 246.221L494.088 245.906L500.725 239.949L501.075 239.634L503.458 237.496C503.581 237.597 503.7 237.698 503.82 237.806H503.823Z" fill="#1C3870"/>
<path d="M509.575 246.113L508.084 247.451L507.734 247.767L501.1 253.721L500.749 254.036L494.369 259.761L494.019 260.076L487.762 265.691L487.412 266.006L482.007 270.856L481.657 271.171L480.959 271.796C480.808 271.721 480.659 271.645 480.511 271.567L481.339 270.821L481.69 270.506L487.095 265.655L487.448 265.34L493.699 259.726L494.049 259.411L500.43 253.686L500.78 253.371L507.417 247.416L507.767 247.101L509.389 245.646C509.454 245.8 509.515 245.957 509.573 246.113H509.575Z" fill="#1C3870"/>
<path d="M510.639 256.535C510.601 256.787 510.556 257.037 510.505 257.286L507.06 260.382L506.709 260.695L500.329 266.422L499.979 266.737L493.725 272.352L493.372 272.664L491.957 273.937C491.705 273.96 491.455 273.978 491.204 273.985L493.062 272.314L493.413 272.001L499.667 266.387L500.019 266.072L506.395 260.344L506.745 260.032L510.639 256.535Z" fill="#1C3870"/>
<path d="M483.947 273.027C483.637 272.929 483.332 272.825 483.027 272.709L481.655 271.177L481.34 270.826L474.965 263.712L474.652 263.362L470.244 258.446C470.166 258.133 470.093 257.818 470.03 257.498L475.002 263.047L475.315 263.397L481.69 270.511L482.005 270.862L483.944 273.027H483.947Z" fill="#1C3870"/>
<path d="M467.643 164.666H512.913C517.009 164.666 520.334 167.994 520.334 172.093V217.402C520.334 221.501 517.009 224.828 512.913 224.828H467.643C463.547 224.828 460.222 221.501 460.222 217.402V172.093C460.222 167.994 463.547 164.666 467.643 164.666Z" fill="#CAC4D0"/>
<path d="M510.88 193.393C510.88 194.472 510.797 195.533 510.638 196.569C510.601 196.821 510.555 197.071 510.505 197.32C510.165 199.1 509.593 200.799 508.827 202.385C508.754 202.536 508.679 202.687 508.601 202.836C507.261 205.445 505.377 207.732 503.102 209.547C502.979 209.645 502.855 209.744 502.729 209.837C500.415 211.601 497.709 212.887 494.77 213.545H494.767L494.238 213.659H494.236C493.49 213.805 492.735 213.911 491.962 213.971C491.71 213.994 491.46 214.012 491.208 214.019H491.206C490.891 214.039 490.571 214.044 490.254 214.044C488.057 214.044 485.942 213.699 483.954 213.061C483.644 212.963 483.34 212.859 483.035 212.743C482.325 212.481 481.634 212.179 480.964 211.838C480.813 211.763 480.665 211.687 480.516 211.607C477.647 210.066 475.189 207.868 473.335 205.216C473.244 205.087 473.151 204.956 473.063 204.825C471.791 202.912 470.829 200.774 470.249 198.482C470.171 198.17 470.098 197.855 470.035 197.535C469.877 196.761 469.763 195.974 469.695 195.172C469.68 194.973 469.662 194.774 469.655 194.575C469.632 194.182 469.62 193.788 469.62 193.395C469.62 191.247 469.947 189.18 470.554 187.231C470.607 187.06 470.665 186.886 470.723 186.717C471.688 183.881 473.257 181.325 475.269 179.197C475.38 179.084 475.486 178.97 475.602 178.859C477.637 176.8 480.103 175.171 482.859 174.112C483.017 174.049 483.173 173.994 483.335 173.936C485.498 173.165 487.828 172.746 490.254 172.746C491.415 172.746 492.553 172.842 493.662 173.028C493.858 173.059 494.052 173.094 494.249 173.134C494.387 173.16 494.526 173.187 494.664 173.22C494.936 173.281 495.206 173.344 495.475 173.417C498.452 174.191 501.173 175.62 503.467 177.536C503.591 177.637 503.709 177.738 503.83 177.846C506.256 179.969 508.178 182.648 509.399 185.686C509.465 185.84 509.525 185.996 509.583 186.153C510.087 187.494 510.455 188.905 510.669 190.365C510.709 190.637 510.744 190.912 510.769 191.187C510.848 191.915 510.89 192.652 510.89 193.398L510.88 193.393Z" fill="#E27227"/>
<path d="M503.102 209.547C502.978 209.646 502.855 209.744 502.729 209.837L499.981 206.772L499.666 206.421L494.019 200.117L493.704 199.766L487.329 192.652L487.014 192.302L480.72 185.276L480.405 184.923L475.269 179.195C475.38 179.082 475.486 178.968 475.602 178.857L480.758 184.61L481.072 184.961L487.367 191.987L487.682 192.337L494.057 199.451L494.372 199.801L500.021 206.106L500.334 206.457L503.104 209.547H503.102Z" fill="#1C3870"/>
<path d="M508.827 202.388C508.754 202.539 508.679 202.69 508.601 202.839L506.712 200.729L506.397 200.378L500.75 194.076L500.435 193.726L494.06 186.611L493.745 186.261L487.448 179.233L487.135 178.882L482.858 174.11C483.017 174.047 483.173 173.992 483.334 173.934L487.485 178.57L487.8 178.92L494.095 185.946L494.41 186.296L500.785 193.41L501.1 193.761L506.747 200.066L507.062 200.416L508.827 202.388Z" fill="#1C3870"/>
<path d="M510.661 190.361C510.702 190.633 510.737 190.908 510.762 191.183L507.732 187.805L507.42 187.455L501.039 180.338L500.727 179.988L494.657 173.219C494.929 173.279 495.198 173.342 495.468 173.415L501.077 179.672L501.392 180.023L507.767 187.139L508.079 187.49L510.656 190.364L510.661 190.361Z" fill="#1C3870"/>
<path d="M494.765 213.545L494.236 213.659H494.234L493.375 212.698L493.062 212.348L487.413 206.045L487.098 205.695L480.725 198.581L480.41 198.228L474.113 191.205L473.799 190.852L470.552 187.229C470.605 187.058 470.663 186.884 470.72 186.715L474.146 190.539L474.461 190.89L480.758 197.915L481.07 198.266L487.45 205.38L487.763 205.73L493.412 212.035L493.727 212.386L494.765 213.545Z" fill="#1C3870"/>
<path d="M494.241 173.13L487.795 178.919L487.443 179.231L481.068 184.959L480.718 185.274L474.461 190.888L474.111 191.203L469.69 195.169C469.675 194.969 469.657 194.77 469.65 194.571L473.796 190.848L474.146 190.535L480.403 184.918L480.753 184.606L487.133 178.878L487.483 178.566L493.657 173.02C493.853 173.05 494.047 173.085 494.244 173.125L494.241 173.13Z" fill="#1C3870"/>
<path d="M503.823 177.842L501.392 180.02L501.04 180.335L494.405 186.295L494.055 186.61L487.675 192.335L487.325 192.65L481.068 198.264L480.72 198.579L475.313 203.43L474.962 203.745L473.328 205.215C473.237 205.086 473.144 204.955 473.056 204.824L474.65 203.397L475 203.082L480.403 198.229L480.753 197.916L487.007 192.302L487.357 191.987L493.738 186.262L494.088 185.947L500.725 179.99L501.075 179.675L503.458 177.537C503.581 177.638 503.7 177.739 503.82 177.847L503.823 177.842Z" fill="#1C3870"/>
<path d="M509.575 186.151L508.084 187.489L507.734 187.804L501.1 193.759L500.749 194.074L494.369 199.799L494.019 200.114L487.762 205.728L487.412 206.043L482.007 210.894L481.657 211.209L480.959 211.834C480.808 211.758 480.659 211.683 480.511 211.602L481.339 210.856L481.69 210.541L487.095 205.69L487.448 205.375L493.699 199.761L494.049 199.446L500.43 193.721L500.78 193.406L507.417 187.451L507.767 187.136L509.389 185.682C509.454 185.835 509.515 185.992 509.573 186.148L509.575 186.151Z" fill="#1C3870"/>
<path d="M510.639 196.571C510.601 196.823 510.556 197.073 510.505 197.322L507.06 200.415L506.709 200.728L500.329 206.456L499.979 206.771L493.725 212.385L493.372 212.697L491.957 213.97C491.705 213.993 491.455 214.011 491.204 214.018L493.062 212.347L493.413 212.034L499.667 206.42L500.019 206.105L506.395 200.378L506.745 200.065L510.639 196.568V196.571Z" fill="#1C3870"/>
<path d="M483.947 213.062C483.637 212.964 483.332 212.861 483.027 212.745L481.655 211.212L481.34 210.861L474.965 203.747L474.652 203.397L470.244 198.481C470.166 198.168 470.093 197.853 470.03 197.533L475.002 203.082L475.315 203.432L481.69 210.546L482.005 210.897L483.944 213.062H483.947Z" fill="#1C3870"/>
<path d="M446.145 74.6953H144.356V252.014H446.145V74.6953Z" fill="#938F99"/>
<path d="M446.145 74.6953H144.356V223.686H446.145V74.6953Z" fill="#283689"/>
<path d="M334.748 280.901V285.209H246.136V280.901C252.398 280.901 257.526 276.063 257.999 269.922C258.022 269.614 258.035 269.304 258.035 268.992V252.016H322.849V268.992C322.849 269.304 322.861 269.614 322.884 269.922C323.108 272.839 324.385 275.463 326.332 277.414C328.486 279.567 331.463 280.901 334.748 280.901Z" fill="#79747E"/>
<g opacity="0.7">
<path d="M322.849 252.012H258.035V255.559H322.849V252.012Z" fill="#49454F"/>
</g>
<g opacity="0.7">
<path d="M334.748 280.901H246.136C252.398 280.901 257.526 276.063 257.999 269.922H322.884C323.108 272.839 324.385 275.463 326.332 277.414C328.486 279.567 331.463 280.901 334.748 280.901Z" fill="#49454F"/>
</g>
<path d="M79.3243 226.529C79.3243 226.529 76.1834 198.627 88.246 175.117C89.5255 172.624 92.6992 173.251 93.2231 176.105C95.0996 186.335 96.9686 206.767 88.324 228.475C76.0222 259.367 79.3243 226.529 79.3243 226.529Z" fill="#A8D29F"/>
<path d="M93.7294 232.045C93.7294 232.045 95.6991 204.038 111.825 183.106C113.535 180.888 116.542 182.08 116.54 184.982C116.53 195.381 114.663 215.816 102.225 235.592C84.5257 263.736 93.7294 232.043 93.7294 232.043V232.045Z" fill="#A8D29F"/>
<path d="M85.7075 226.466C85.7075 226.466 85.7654 198.388 100.425 176.405C101.979 174.073 105.062 175.061 105.256 177.956C105.954 188.332 105.485 208.845 94.4251 229.426C78.685 258.714 85.7075 226.466 85.7075 226.466Z" fill="#82B378"/>
<path d="M95.1832 227.885C95.1832 227.885 100.719 206.677 116.099 192.935C117.729 191.478 119.867 192.827 119.447 195.053C117.946 203.031 113.578 218.442 101.191 231.831C83.5664 250.881 95.1806 227.885 95.1806 227.885H95.1832Z" fill="#82B378"/>
<path d="M74.4882 229.799C74.4882 229.799 77.6292 201.897 65.5666 178.386C64.287 175.893 61.1133 176.521 60.5894 179.375C58.7129 189.605 56.8439 210.037 65.4885 231.745C77.7904 262.637 74.4882 229.799 74.4882 229.799Z" fill="#A8D29F"/>
<path d="M60.0833 235.315C60.0833 235.315 58.1136 207.307 41.9882 186.376C40.2779 184.157 37.2704 185.35 37.273 188.251C37.283 198.65 39.1495 219.085 51.5874 238.862C69.287 267.006 60.0833 235.312 60.0833 235.312V235.315Z" fill="#A8D29F"/>
<path d="M68.1058 229.736C68.1058 229.736 68.0478 201.657 53.3884 179.675C51.8342 177.343 48.7512 178.331 48.5573 181.225C47.8596 191.601 48.3281 212.114 59.3882 232.695C75.1282 261.981 68.1058 229.736 68.1058 229.736Z" fill="#82B378"/>
<path d="M84.4349 231.249C84.4349 231.249 89.7244 203.675 79.5182 179.297C78.4351 176.713 75.2211 177.094 74.4806 179.897C71.8182 189.951 68.3725 210.177 75.3143 232.492C85.1906 264.243 84.4375 231.249 84.4375 231.249H84.4349Z" fill="#82B378"/>
<path d="M58.6299 231.155C58.6299 231.155 53.0936 209.946 37.7137 196.204C36.084 194.747 33.9456 196.096 34.3662 198.322C35.8674 206.301 40.235 221.711 52.6225 235.1C70.2467 254.151 58.6324 231.155 58.6324 231.155H58.6299Z" fill="#82B378"/>
<path d="M40.6531 225.715H115.369V254.514C115.369 267.129 105.137 277.369 92.533 277.369H62.2896C49.6855 277.369 39.4541 267.129 39.4541 254.514V226.915C39.4541 226.252 39.9906 225.715 40.6531 225.715Z" fill="#938F99"/>
<path d="M441.638 78.6211H148.27V218.07H441.638V78.6211Z" fill="#505ABA"/>
<g opacity="0.1">
<path d="M218.083 85.0527H155.181V148.008H218.083V85.0527Z" fill="#DDE7FE"/>
</g>
<g opacity="0.1">
<path d="M218.083 154.941H155.181V212.298H218.083V154.941Z" fill="#DDE7FE"/>
</g>
<g opacity="0.1">
<path d="M432.86 162.158H230.27V212.295H432.86V162.158Z" fill="#DDE7FE"/>
</g>
<path d="M359.764 85.0527H230.272V155.98H359.764V85.0527Z" fill="#EBF2F9"/>
<path d="M353.609 104.406V155.98H230.272V117.467H234.879V119.857H238.665V118.468H242.174V112.962H243.922V110.393H244.186V112.962H248.38V108.147H248.793V112.962H251.566V112.894H251.561V112.284H251.566V111.707H251.561V110.744H251.566V110.129H251.561V109.168H251.566V108.553H251.561V107.593H251.566V106.927H251.561V105.964H251.566V105.122H251.561V104.159H251.566V103.524H252.393V102.803H252.526V103.524H258.652V102.803H258.783V103.524H259.901V108.558H260.687H260.682V107.598H260.687V106.932H260.682V105.969H260.687V105.309H260.682V104.348H260.687V104.343H268.113V104.348H269.392C269.458 104.373 269.523 104.398 269.589 104.421V109.914H275.014V117.129H279.399V103.786H280.357V102.853H280.528V103.786H283.991V102.853H284.162V103.786H289.067V102.853H289.238V103.786H292.323V102.853H292.495V103.786H293.764V116.239H298.61V114.228L304.325 114.245V110.981H305.477V110.338H305.628V110.981H310.041H310.925V110.335H311.076V110.981H312.139V117.47H318.945V119.859H322.728V118.47H326.237V112.965H327.987V110.396H328.249V112.965H332.443V108.15H332.854V112.965H335.627V112.897H335.622V112.287H335.627V111.709H335.622V110.746H335.627V110.131H335.622V109.171H335.627V108.556H335.622V107.595H335.627V106.93H335.622V105.967H335.627V105.125H335.622V104.162H335.627V103.526H336.455V102.805H336.589V103.526H342.712V102.805H342.846V103.526H343.961V108.561H344.737H344.75H344.742V107.6H344.75V106.935H344.742V105.972H344.75V105.311H344.742V104.351H344.75V104.346H352.175V104.351H353.452C353.508 104.371 353.561 104.393 353.619 104.414L353.609 104.406Z" fill="#D5E5FB"/>
<path d="M293.757 103.787H282.8V105.897H293.757V103.787Z" fill="#E2EEFD"/>
<path d="M340.745 103.521H335.634V104.802H340.745V103.521Z" fill="#E2EEFD"/>
<path d="M340.745 105.496H335.634V106.779H340.745V105.496Z" fill="#E2EEFD"/>
<path d="M340.745 107.51H335.634V108.793H340.745V107.51Z" fill="#E2EEFD"/>
<path d="M340.745 109.557H335.634V110.837H340.745V109.557Z" fill="#E2EEFD"/>
<path d="M340.745 111.529H335.634V112.812H340.745V111.529Z" fill="#E2EEFD"/>
<path d="M340.745 113.703H335.634V114.986H340.745V113.703Z" fill="#E2EEFD"/>
<path d="M340.745 115.678H335.634V116.958H340.745V115.678Z" fill="#E2EEFD"/>
<path d="M340.745 117.691H335.634V118.975H340.745V117.691Z" fill="#E2EEFD"/>
<path d="M340.745 119.738H335.634V121.019H340.745V119.738Z" fill="#E2EEFD"/>
<path d="M340.745 121.711H335.634V122.992H340.745V121.711Z" fill="#E2EEFD"/>
<path d="M256.99 103.521H251.511V104.802H256.99V103.521Z" fill="#E2EEFD"/>
<path d="M256.99 105.496H251.511V106.779H256.99V105.496Z" fill="#E2EEFD"/>
<path d="M256.99 107.51H251.511V108.793H256.99V107.51Z" fill="#E2EEFD"/>
<path d="M256.99 109.557H251.511V110.837H256.99V109.557Z" fill="#E2EEFD"/>
<path d="M256.99 111.529H251.511V112.812H256.99V111.529Z" fill="#E2EEFD"/>
<path d="M256.99 113.703H251.511V114.986H256.99V113.703Z" fill="#E2EEFD"/>
<path d="M256.99 115.678H251.511V116.958H256.99V115.678Z" fill="#E2EEFD"/>
<path d="M256.99 117.691H251.511V118.975H256.99V117.691Z" fill="#E2EEFD"/>
<path d="M256.99 119.738H251.511V121.019H256.99V119.738Z" fill="#E2EEFD"/>
<path d="M256.99 121.711H251.511V122.992H256.99V121.711Z" fill="#E2EEFD"/>
<path d="M267.015 104.363H260.788V105.646H267.015V104.363Z" fill="#E2EEFD"/>
<path d="M267.015 106.338H260.788V107.619H267.015V106.338Z" fill="#E2EEFD"/>
<path d="M267.015 108.352H260.788V109.632H267.015V108.352Z" fill="#E2EEFD"/>
<path d="M267.015 110.396H260.788V111.68H267.015V110.396Z" fill="#E2EEFD"/>
<path d="M267.015 112.371H260.788V113.652H267.015V112.371Z" fill="#E2EEFD"/>
<path d="M267.015 114.43H260.788V115.713H267.015V114.43Z" fill="#E2EEFD"/>
<path d="M267.015 116.404H260.788V117.685H267.015V116.404Z" fill="#E2EEFD"/>
<path d="M267.015 118.418H260.788V119.699H267.015V118.418Z" fill="#E2EEFD"/>
<path d="M267.015 120.465H260.788V121.748H267.015V120.465Z" fill="#E2EEFD"/>
<path d="M267.015 122.438H260.788V123.721H267.015V122.438Z" fill="#E2EEFD"/>
<path d="M342.553 99.0822H342.072L342.077 99.0443L342.223 97.7587C342.228 97.7183 342.263 97.6855 342.304 97.6855C342.309 97.6855 342.314 97.6855 342.319 97.6855C342.346 97.6881 342.372 97.7007 342.389 97.7183C342.412 97.7385 342.427 97.7687 342.432 97.8015L342.555 99.0796L342.553 99.0822Z" fill="#9DB0F4"/>
<path d="M342.117 98.7897H342.099L342.22 97.7587C342.225 97.7183 342.26 97.6855 342.301 97.6855C342.306 97.6855 342.311 97.6855 342.316 97.6855C342.321 97.6906 342.326 97.6931 342.328 97.6981C342.351 97.7208 342.361 97.7511 342.364 97.7839L342.371 98.525C342.371 98.6662 342.26 98.7847 342.117 98.7872V98.7897Z" fill="#AFCDFB"/>
<path d="M342.858 104.799H341.931V145.8H342.858V104.799Z" fill="#9DB0F4"/>
<path d="M342.359 104.799H341.931V145.8H342.359V104.799Z" fill="#AEC3FF"/>
<path d="M343.873 139.256H340.918V150.103H343.873V139.256Z" fill="#9DB0F4"/>
<path d="M342.679 139.256H340.918V150.103H342.679V139.256Z" fill="#AEC3FF"/>
<path d="M344.012 99.7008C344.012 100.208 343.251 100.618 342.314 100.618C342.241 100.618 342.173 100.618 342.102 100.611C341.264 100.555 340.616 100.17 340.616 99.7008C340.616 99.2319 341.266 98.8462 342.102 98.7908C342.173 98.7857 342.241 98.7832 342.314 98.7832C343.251 98.7832 344.012 99.1941 344.012 99.7008Z" fill="#9DB0F4"/>
<path d="M343.133 99.6991C343.133 100.108 342.707 100.458 342.102 100.609C341.264 100.554 340.616 100.168 340.616 99.6991C340.616 99.2302 341.266 98.8445 342.102 98.7891C342.709 98.9403 343.133 99.2907 343.133 99.6991Z" fill="#AEC3FF"/>
<path d="M343.87 105.608H340.915L339.873 100.586H344.751L343.87 105.608Z" fill="#AEC3FF"/>
<path d="M345.014 100.205H339.608V100.687H345.014V100.205Z" fill="#9DB0F4"/>
<path d="M343.006 100.205H339.608V100.687H343.006V100.205Z" fill="#AEC3FF"/>
<path d="M341.402 139.256H343.291L343.014 138.416C342.989 138.343 342.921 138.293 342.843 138.293H341.959C341.863 138.293 341.777 138.351 341.739 138.439L341.404 139.256H341.402Z" fill="#819DEA"/>
<path d="M340.223 100.828H344.389L343.575 105.343H341.182L340.223 100.828Z" fill="#C5D7FF"/>
<path d="M344.671 100.206H339.953L340.341 99.6562H344.303L344.671 100.206Z" fill="#9DB0F4"/>
<path d="M343.507 100.206H339.953L340.341 99.6562H343.142L343.507 100.206Z" fill="#AEC3FF"/>
<path d="M260.062 150.15L230.272 150.14V142.859C230.368 142.905 230.463 142.95 230.562 142.998C234.627 145.07 234.093 147.831 239.126 146.817C244.158 145.809 248.309 145.383 250.561 146.817C252.815 148.254 254.468 147.682 257.271 147.672C259.593 147.664 259.991 149.515 260.062 150.147V150.15Z" fill="#A8D29F"/>
<path d="M266.243 141.811H237.856L236.546 135.133H264.88L266.243 141.811Z" fill="#D36D1A"/>
<path d="M266.727 141.811H238.343L237.03 135.133H265.364L266.727 141.811Z" fill="#F49540"/>
<path d="M237.856 141.809H246.234V142.626H238.476C238.133 142.626 237.854 142.346 237.854 142.003V141.807L237.856 141.809Z" fill="#D36D1A"/>
<path d="M271.953 141.811H246.173V142.627H271.953V141.811Z" fill="#FFA255"/>
<path d="M239.551 142.628L239.065 144.541L237.627 150.208C237.607 150.281 237.541 150.334 237.466 150.334C237.32 150.334 237.209 150.2 237.237 150.057L238.519 143.447L238.677 142.625H239.549L239.551 142.628Z" fill="#FFA255"/>
<path d="M239.065 144.54C239.113 143.562 238.521 143.449 238.521 143.449L238.68 142.627H239.551L239.065 144.54Z" fill="#D36D1A"/>
<path d="M245.71 142.628L245.224 144.541L243.785 150.208C243.765 150.281 243.7 150.334 243.624 150.334C243.478 150.334 243.367 150.2 243.395 150.057L244.679 143.447L244.838 142.625H245.71V142.628Z" fill="#FFA255"/>
<path d="M245.224 144.54C245.272 143.562 244.68 143.449 244.68 143.449L244.838 142.627H245.71L245.224 144.54Z" fill="#D36D1A"/>
<path d="M269.601 142.628L270.087 144.541L271.525 150.208C271.545 150.281 271.611 150.334 271.686 150.334C271.832 150.334 271.943 150.2 271.915 150.057L270.631 143.447L270.472 142.625H269.601V142.628Z" fill="#FFA255"/>
<path d="M270.087 144.54C270.039 143.562 270.631 143.449 270.631 143.449L270.472 142.627H269.601L270.087 144.54Z" fill="#D36D1A"/>
<path d="M263.442 142.628L263.928 144.541L265.367 150.208C265.387 150.281 265.452 150.334 265.528 150.334C265.674 150.334 265.785 150.2 265.757 150.057L264.473 143.447L264.314 142.625H263.442V142.628Z" fill="#FFA255"/>
<path d="M263.928 144.54C263.883 143.562 264.473 143.449 264.473 143.449L264.314 142.627H263.442L263.928 144.54Z" fill="#D36D1A"/>
<path d="M247.967 103.323C247.234 103.746 246.372 104.016 245.435 104.079C241.325 104.336 239.899 105.866 236.574 109.106C234.788 110.84 232.325 111.216 230.27 111.276V89.2734C230.849 89.6869 231.443 90.1154 232.053 90.5188C234.315 92.0364 236.768 93.2691 239.448 92.6162C242.146 91.9583 244.226 91.9986 245.858 92.5255C247.939 93.1809 249.302 94.6078 250.276 96.3573C251.624 98.7598 250.458 101.898 247.964 103.323H247.967Z" fill="#A8D29F"/>
<path d="M281.535 95.5459C281.535 94.5275 282.359 93.7031 283.376 93.7031C284.394 93.7031 285.218 94.5275 285.218 95.5459C285.218 96.5644 284.394 97.3888 283.376 97.3888C282.359 97.3888 281.535 96.5644 281.535 95.5459Z" fill="#F8FCFF"/>
<path d="M311.856 93.9049C311.856 93.9049 313.456 91.331 317.284 91.6159C317.284 91.6159 322.841 87.3252 328.765 91.0436C328.765 91.0436 335.062 90.121 339.727 91.8402C342.835 92.9873 343.863 94.1898 343.863 94.1898L311.856 93.9049Z" fill="#F8FCFF"/>
<g opacity="0.5">
<path d="M330.977 100.517C330.977 100.517 332.024 98.8331 334.526 99.0197C334.526 99.0197 338.16 96.2139 342.034 98.6466C342.034 98.6466 346.152 98.0441 349.203 99.1684C351.235 99.9171 351.908 100.704 351.908 100.704L330.974 100.517H330.977Z" fill="#F8FCFF"/>
</g>
<g opacity="0.5">
<path d="M252.814 99.3511C252.814 99.3511 253.861 97.6671 256.363 97.8537C256.363 97.8537 259.997 95.0479 263.871 97.4806C263.871 97.4806 267.989 96.8781 271.04 98.0024C273.075 98.7511 273.745 99.5377 273.745 99.5377L252.811 99.3511H252.814Z" fill="#F8FCFF"/>
</g>
<path d="M359.764 150.104H230.272V155.977H359.764V150.104Z" fill="#9DB0F4"/>
<path d="M311.859 148.308C311.859 148.308 311.225 146.004 312.955 143.763C314.685 141.522 317.62 142.124 317.62 142.124C317.62 142.124 318.028 142.755 317.219 143.254C316.408 143.753 313.585 142.755 312.874 147.663C312.874 147.663 312.534 148.679 311.862 148.308H311.859Z" fill="#F99746"/>
<path d="M289.9 115.151C289.9 114.574 290.369 114.107 290.943 114.107C291.517 114.107 291.986 114.576 291.986 115.151C291.986 115.726 291.52 116.195 290.943 116.195C290.366 116.195 289.9 115.728 289.9 115.151Z" fill="#ED7D2B"/>
<path d="M315.166 146.939C315.166 146.13 315.821 145.475 316.629 145.475C317.438 145.475 318.093 146.13 318.093 146.939C318.093 147.749 317.438 148.404 316.629 148.404C315.821 148.404 315.166 147.749 315.166 146.939Z" fill="#9DB0F4"/>
<path d="M282.711 145.82C282.711 144.582 283.714 143.576 284.953 143.576C286.192 143.576 287.195 144.58 287.195 145.82C287.195 147.06 286.192 148.063 284.953 148.063C283.714 148.063 282.711 147.06 282.711 145.82Z" fill="#9DB0F4"/>
<path d="M288.464 116.127L284.906 142.092L285.792 142.213L289.35 116.249L288.464 116.127Z" fill="#131375"/>
<path d="M286.273 117.021V116.018L290.835 115.02L291.134 115.862L286.273 117.021Z" fill="#ED7D2B"/>
<path d="M285.026 150.077C282.724 150.077 280.853 148.204 280.853 145.9C280.853 143.596 282.724 141.723 285.026 141.723C287.328 141.723 289.2 143.596 289.2 145.9C289.2 148.204 287.328 150.077 285.026 150.077ZM285.026 142.567C283.19 142.567 281.696 144.062 281.696 145.9C281.696 147.738 283.19 149.233 285.026 149.233C286.862 149.233 288.356 147.738 288.356 145.9C288.356 144.062 286.862 142.567 285.026 142.567Z" fill="#060633"/>
<path d="M316.63 149.992C314.947 149.992 313.58 148.624 313.58 146.94C313.58 145.256 314.947 143.887 316.63 143.887C318.312 143.887 319.68 145.256 319.68 146.94C319.68 148.624 318.312 149.992 316.63 149.992ZM316.63 144.56C315.318 144.56 314.25 145.629 314.25 146.942C314.25 148.256 315.318 149.322 316.63 149.322C317.942 149.322 319.01 148.253 319.01 146.942C319.01 145.631 317.942 144.56 316.63 144.56Z" fill="#060633"/>
<path d="M291.414 147.02H312.128C312.499 147.02 312.801 147.322 312.801 147.693V148.015C312.801 148.386 312.499 148.688 312.128 148.688H291.414C291.043 148.688 290.741 148.386 290.741 148.015V147.693C290.741 147.322 291.043 147.02 291.414 147.02Z" fill="#131375"/>
<path d="M312.37 148.699C312.229 148.699 312.098 148.611 312.053 148.47C311.995 148.293 312.088 148.104 312.264 148.046L316.524 146.625C316.7 146.567 316.889 146.66 316.947 146.836C317.005 147.013 316.912 147.202 316.735 147.26L312.476 148.682C312.441 148.694 312.405 148.699 312.37 148.699Z" fill="#131375"/>
<path d="M286.18 135.621L293.321 147.054H295.135L286.561 133.496L286.18 135.621Z" fill="#131375"/>
<path d="M286.588 142.234L285.933 142.035L285.25 144.281C285.023 145.025 284.308 145.512 283.535 145.446L281.366 145.262L281.308 145.945L283.482 146.129C284.384 146.205 285.197 146.696 285.683 147.46L286.834 149.263L287.411 148.895L286.3 147.153C285.782 146.338 285.643 145.34 285.925 144.417L286.588 142.237V142.234Z" fill="#060633"/>
<path d="M317.612 144.601L317.187 144.473L316.743 145.932C316.597 146.416 316.131 146.731 315.627 146.689L314.219 146.57L314.182 147.014L315.595 147.132C316.179 147.183 316.708 147.5 317.025 147.997L317.773 149.169L318.149 148.93L317.426 147.798C317.088 147.268 317 146.62 317.182 146.021L317.612 144.604V144.601Z" fill="#060633"/>
<path d="M316.234 146.886C316.234 146.7 316.385 146.551 316.569 146.551C316.753 146.551 316.904 146.702 316.904 146.886C316.904 147.07 316.753 147.221 316.569 147.221C316.385 147.221 316.234 147.07 316.234 146.886Z" fill="#F99746"/>
<path d="M284.616 145.82C284.616 145.633 284.767 145.484 284.951 145.484C285.135 145.484 285.286 145.636 285.286 145.82C285.286 146.004 285.135 146.155 284.951 146.155C284.767 146.155 284.616 146.004 284.616 145.82Z" fill="#F99746"/>
<path d="M282.394 141.492C282.394 141.492 284.351 140.121 287.039 141.003C289.729 141.885 290.145 144.853 290.145 144.853C290.145 144.853 289.689 145.45 288.946 144.853C288.205 144.255 288.2 141.258 283.339 142.231C283.339 142.231 282.268 142.251 282.392 141.492H282.394Z" fill="#F99746"/>
<path d="M300.988 90.1953C300.988 90.1953 297.61 95.6305 297.61 97.1078C297.61 98.585 298.685 100.279 298.685 100.279L302.103 97.438L303.804 94.3851L300.988 90.1953Z" fill="#829CE8"/>
<path d="M303.658 98.1695C303.658 98.1695 302.517 100.227 300.479 99.8611C300.479 99.8611 299.88 98.956 299.731 98.23C299.714 98.1418 299.696 98.0535 299.678 97.9729C299.507 97.1561 299.391 96.7023 299.391 96.7023C299.469 96.6494 302.051 94.9452 302.069 95.041C302.454 97.2645 303.658 98.172 303.658 98.172V98.1695Z" fill="#ED975D"/>
<path d="M298.502 96.8276C298.502 96.8276 301.635 97.8788 302.26 95.915C302.882 93.9512 303.708 92.7638 301.733 92.0101C299.759 91.2563 299.131 91.8815 298.764 92.4865C298.396 93.0916 297.706 96.5049 298.504 96.8276H298.502Z" fill="#FFB27D"/>
<path d="M294.948 147.056H300.111C300.162 147.046 300.199 147.036 300.222 147.023C300.567 146.849 300.459 145.528 300.419 145.123C300.411 145.047 300.406 145.002 300.406 145.002C300.406 145.002 298.59 143.55 298.341 144.661C298.333 144.697 298.323 144.729 298.313 144.765C297.998 145.806 296.588 146.28 295.774 146.411C295.152 146.512 294.991 146.875 294.95 147.056H294.948Z" fill="#A9453D"/>
<path d="M305.056 147.056H310.219C310.27 147.046 310.305 147.036 310.33 147.023C310.675 146.849 310.567 145.528 310.527 145.123C310.519 145.047 310.514 145.002 310.514 145.002C310.514 145.002 308.698 143.55 308.448 144.661C308.441 144.697 308.431 144.729 308.421 144.765C308.106 145.806 306.695 146.28 305.882 146.411C305.26 146.512 305.098 146.875 305.056 147.056Z" fill="#A9453D"/>
<path d="M295.988 117.25C295.988 117.25 296.263 120.694 296.588 124.833C297.029 130.458 297.558 137.365 297.61 138.674C297.701 140.945 298.311 144.764 298.311 144.764C298.311 144.764 298.678 145.367 300.404 145.001C300.404 145.001 302.192 139.891 302.63 134.4C302.638 134.31 302.643 134.219 302.651 134.128C303.059 128.539 303.693 116.771 303.693 116.771L295.988 117.248V117.25Z" fill="#F99746"/>
<path d="M295.988 117.25C295.988 117.25 296.262 120.694 296.587 124.833L302.627 134.4C302.635 134.31 302.64 134.219 302.648 134.128C303.056 128.539 303.69 116.771 303.69 116.771L295.985 117.248L295.988 117.25Z" fill="#ED7D2B"/>
<path d="M297.248 117.659C297.248 117.659 300.635 130.642 303.902 136.501C307.172 142.362 308.338 144.971 308.338 144.971C308.338 144.971 310.34 145.513 310.512 145.002C310.512 145.002 308.799 131.051 307.474 127.789C306.786 126.1 306.466 120.906 306.398 119.27C306.33 117.634 305.182 115.408 305.182 115.408L297.25 117.657L297.248 117.659Z" fill="#F99746"/>
<path d="M296.132 122.716C302.416 125.827 309.295 124.821 309.282 124.606C309.27 124.372 306.663 110.494 305.761 106.448C304.92 102.679 303.784 99.3768 302.731 98.623C302.592 98.5272 301.766 98.9533 301.003 99.3491C300.3 99.7146 299.59 99.7675 298.918 99.644C298.918 99.644 298.575 100.098 298.373 100.592C297.95 101.623 295.744 108.674 295.716 109.894C295.716 109.967 295.714 110.04 295.711 110.111C295.704 110.464 295.696 110.817 295.691 111.17C295.686 111.571 296.059 122.683 296.127 122.718L296.132 122.716Z" fill="#9DB0F4"/>
<path d="M295.898 117.42C302.079 113.951 301.467 105.965 301.467 105.965L295.696 111.166C295.691 111.566 295.686 111.967 295.686 112.36C295.686 112.655 295.686 112.95 295.691 113.24V113.278C295.684 113.387 295.686 113.502 295.691 113.611C295.694 114.095 295.895 116.981 295.903 117.42H295.898Z" fill="#7A96E5"/>
<path d="M289.666 115.042C289.359 114.51 289.598 114.278 289.598 114.278C289.598 114.278 294.704 110.525 295.107 110.144C295.51 109.761 297.512 103.534 297.512 103.534C297.512 103.534 298.212 101.011 299.681 100.776C300.955 100.572 301.812 101.227 302.363 101.979C303.018 102.876 303.048 104.089 302.454 105.026C301.114 107.134 298.416 111.316 297.646 112.019C295.928 113.588 290.389 115.476 290.389 115.476C290.389 115.476 289.908 115.461 289.666 115.045V115.042Z" fill="#FFB27D"/>
<path d="M302.099 96.4498C302.139 96.4826 302.809 96.7573 304.356 94.2742C304.597 93.886 304.819 93.0137 304.414 92.1894C304.008 91.365 302.371 90.5936 300.988 90.1953C299.605 89.797 299.195 90.5583 298.789 91.3247C298.363 92.1289 297.295 92.7238 297.295 92.7238C298.447 93.5154 299.998 92.6784 300.489 92.8852C300.98 93.0919 301.086 93.9061 301.101 94.1658C301.116 94.4255 301.154 94.6423 301.812 94.4734C302.469 94.3045 302.016 95.4036 301.895 95.6103C301.895 95.6103 301.754 96.18 302.099 96.4473V96.4498Z" fill="#233862"/>
<path d="M300.988 90.1953C300.988 90.1953 302.716 93.1524 302.771 94.4154C302.827 95.6784 298.92 99.6438 298.92 99.6438C298.92 99.6438 302.27 100.524 303.65 99.6438C303.65 99.6438 306.839 95.1994 306.839 94.3877C306.839 93.5759 304.973 90.2457 300.99 90.1978L300.988 90.1953Z" fill="#9DB0F4"/>
<path d="M297.94 117.129C297.94 117.129 300.973 117.626 302.879 117.348L302.837 120.399L300.411 121.329L297.942 119.957V117.129H297.94Z" fill="#7A96E5"/>
<path d="M289.585 114.278C289.585 114.278 287.631 114.376 287.238 114.744C286.847 115.112 286.076 115.808 286.658 115.932L288.061 115.624C288.779 115.793 289.039 116.184 289.494 115.939C289.95 115.695 290.452 115.43 290.452 115.43L289.585 114.275V114.278Z" fill="#FFB27D"/>
<path d="M284.903 116.378C284.903 115.8 285.369 115.334 285.946 115.334C286.522 115.334 286.988 115.803 286.988 116.378C286.988 116.952 286.522 117.421 285.946 117.421C285.369 117.421 284.903 116.955 284.903 116.378Z" fill="#F99746"/>
<path d="M313.181 109.028C313.171 109.182 313.153 109.316 313.123 109.427C312.713 110.995 307.413 112.179 306.819 111.612C306.708 111.506 306.592 111.353 306.474 111.158C304.965 108.675 303.051 99.6301 303.804 100.167C303.804 100.167 305.212 99.7259 306.37 99.6175L306.574 99.6024H306.582C306.947 99.5797 307.277 99.5999 307.509 99.6856C308.494 100.051 309.282 102.628 309.282 102.628C309.282 102.628 310.093 102.512 310.819 102.6C310.907 102.61 310.995 102.625 311.081 102.643C311.302 102.688 311.504 102.761 311.655 102.867C312.274 103.308 313.29 107.334 313.181 109.031V109.028Z" fill="#F99746"/>
<path d="M304.474 100.034C304.474 100.034 302.655 98.2947 299.613 98.9149L298.92 99.6434C298.92 99.6434 301.975 98.9073 303.658 100.516L304.474 100.034Z" fill="#F99746"/>
<path d="M299.187 108.314C299.187 108.314 301.006 111.544 305.968 109.94L306.476 111.156C306.476 111.156 300.577 112.835 298.585 109.582L299.189 108.314H299.187Z" fill="#F99746"/>
<path d="M299.842 100.279C299.842 100.279 298.583 100.135 298.117 101.31C297.784 102.15 297.044 106.092 295.369 108.966C294.699 110.118 292.142 112.367 291.077 113.184C291.077 113.184 291.465 114.432 292.298 114.764C292.298 114.764 296.331 115.173 298.981 112.155C299.739 111.298 304.245 103.949 303.316 102.432C302.386 100.914 299.84 100.279 299.84 100.279H299.842Z" fill="#9DB0F4"/>
<path d="M306.582 99.5963C306.401 99.7702 306.051 100.232 306.167 101.114C306.323 102.296 306.703 103.141 306.708 103.148L306.577 103.209C306.577 103.209 306.187 102.337 306.026 101.132C305.92 100.345 306.169 99.8635 306.373 99.6114L306.585 99.5938L306.582 99.5963Z" fill="#ED7D2B"/>
<path d="M311.71 109.064L311.572 109.107C311.511 108.913 310.103 104.368 310.199 103.528C310.259 103.002 310.574 102.729 310.816 102.596C310.904 102.606 310.992 102.621 311.078 102.639C310.909 102.691 310.418 102.901 310.343 103.546C310.249 104.353 311.695 109.017 311.708 109.064H311.71Z" fill="#ED7D2B"/>
<path d="M305.388 107.06L306.64 110.615C306.64 110.615 308.375 110.668 309.436 109.942L308.28 106.289C308.28 106.289 307.315 107.028 305.388 107.06Z" fill="#ED7D2B"/>
<path d="M313.182 109.027C313.172 109.181 313.154 109.315 313.124 109.426C312.713 110.994 307.414 112.179 306.819 111.611C306.708 111.505 306.593 111.352 306.474 111.158C306.522 111.158 309.532 111.052 313.182 109.03V109.027Z" fill="#ED7D2B"/>
<path d="M305.388 107.061L305.756 108.105L307.413 108.218L308.602 107.306L308.28 106.287C308.28 106.287 306.413 106.673 305.388 107.059V107.061Z" fill="#EF873A"/>
<path d="M307.164 107.904C307.164 107.846 307.212 107.801 307.267 107.801C307.323 107.801 307.371 107.846 307.371 107.904C307.371 107.962 307.325 108.008 307.267 108.008C307.209 108.008 307.164 107.962 307.164 107.904Z" fill="#131375"/>
<path d="M394.834 168.355H239.514V172.265H394.834V168.355Z" fill="#9DB0F4"/>
<path d="M394.834 176.246H239.514V180.154H394.834V176.246Z" fill="#9DB0F4"/>
<path d="M394.834 184.135H308.71V188.042H394.834V184.135Z" fill="#9DB0F4"/>
<path d="M357.89 192.025H291.102V195.935H357.89V192.025Z" fill="#9DB0F4"/>
<path d="M394.834 199.914H308.71V203.824H394.834V199.914Z" fill="#9DB0F4"/>
<path d="M200.84 136.672H159.708V138.626H200.84V136.672Z" fill="#9DB0F4"/>
<path d="M209.331 136.672H204.804V141.202H209.331V136.672Z" fill="#9DB0F4"/>
<path d="M193.958 136.672H175.087V138.626H193.958V136.672Z" fill="#F77D48"/>
<path d="M200.84 125.959H159.708V127.91H200.84V125.959Z" fill="#9DB0F4"/>
<path d="M209.331 125.959H204.804V130.489H209.331V125.959Z" fill="#9DB0F4"/>
<path d="M178.233 125.959H165.09V127.91H178.233V125.959Z" fill="#F77D48"/>
<path d="M200.84 115.244H159.708V117.195H200.84V115.244Z" fill="#9DB0F4"/>
<path d="M209.331 115.244H204.804V119.774H209.331V115.244Z" fill="#7A96E5"/>
<path d="M193.203 115.244H180.06V117.195H193.203V115.244Z" fill="#7A96E5"/>
<path d="M200.84 104.529H159.708V106.481H200.84V104.529Z" fill="#9DB0F4"/>
<path d="M209.331 104.529H204.804V109.059H209.331V104.529Z" fill="#7A96E5"/>
<path d="M185.085 104.529H165.09V106.481H185.085V104.529Z" fill="#7A96E5"/>
<path d="M200.84 93.8164H159.708V95.7676H200.84V93.8164Z" fill="#9DB0F4"/>
<path d="M209.331 93.8164H204.804V98.3466H209.331V93.8164Z" fill="#F77D48"/>
<path d="M196.641 93.8164H179.11V95.7676H196.641V93.8164Z" fill="#F77D48"/>
<path d="M182.228 161.031H178.233V165.029H182.228V161.031Z" fill="#9DB0F4"/>
<path d="M189.369 161.031H185.374V165.029H189.369V161.031Z" fill="#9DB0F4"/>
<path d="M212.96 161.545H192.127V163.03H212.96V161.545Z" fill="#9DB0F4"/>
<path d="M172.269 160.529L175.546 163.03L172.269 164.943V160.529Z" fill="#9DB0F4"/>
<path d="M182.228 168.682H178.233V172.68H182.228V168.682Z" fill="#7A96E5"/>
<path d="M189.369 168.682H185.375V172.68H189.369V168.682Z" fill="#9DB0F4"/>
<path d="M212.96 169.195H192.127V170.678H212.96V169.195Z" fill="#9DB0F4"/>
<path d="M172.269 168.18L175.546 170.678L172.269 172.591V168.18Z" fill="#9DB0F4"/>
<path d="M182.228 176.328H178.233V180.326H182.228V176.328Z" fill="#F77D48"/>
<path d="M189.369 176.328H185.375V180.326H189.369V176.328Z" fill="#9DB0F4"/>
<path d="M212.96 176.846H192.127V178.328H212.96V176.846Z" fill="#9DB0F4"/>
<path d="M172.269 175.83L175.546 178.328L172.269 180.242V175.83Z" fill="#9DB0F4"/>
<path d="M182.228 183.98H178.233V187.979H182.228V183.98Z" fill="#F77D48"/>
<path d="M189.369 183.98H185.375V187.979H189.369V183.98Z" fill="#9DB0F4"/>
<path d="M212.96 184.496H192.127V185.981H212.96V184.496Z" fill="#9DB0F4"/>
<path d="M172.269 183.48L175.546 185.979L172.269 187.892V183.48Z" fill="#9DB0F4"/>
<path d="M182.228 191.631H178.233V195.629H182.228V191.631Z" fill="#7A96E5"/>
<path d="M189.369 191.631H185.375V195.629H189.369V191.631Z" fill="#9DB0F4"/>
<path d="M212.96 192.146H192.127V193.631H212.96V192.146Z" fill="#9DB0F4"/>
<path d="M172.269 191.131L175.546 193.632L172.269 195.543V191.131Z" fill="#9DB0F4"/>
<path d="M182.228 199.279H178.233V203.278H182.228V199.279Z" fill="#7A96E5"/>
<path d="M189.369 199.279H185.375V203.278H189.369V199.279Z" fill="#9DB0F4"/>
<path d="M212.96 199.797H192.127V201.279H212.96V199.797Z" fill="#9DB0F4"/>
<path d="M172.269 198.781L175.546 201.28L172.269 203.193V198.781Z" fill="#9DB0F4"/>
<g opacity="0.5">
<path d="M159.083 162.736C159.083 162.736 160.138 161.375 161.567 161.375C162.995 161.375 163.924 162.736 163.924 162.736C163.924 162.736 163.163 164.1 161.567 164.1C159.884 164.1 159.083 162.736 159.083 162.736Z" fill="#DDE7FE"/>
<path d="M160.562 162.736C160.562 162.214 160.985 161.793 161.504 161.793C162.022 161.793 162.446 162.214 162.446 162.736C162.446 163.258 162.022 163.679 161.504 163.679C160.985 163.679 160.562 163.255 160.562 162.736Z" fill="#15156D"/>
<path d="M160.929 162.737C160.929 162.42 161.186 162.16 161.506 162.16C161.826 162.16 162.083 162.417 162.083 162.737C162.083 163.058 161.826 163.315 161.506 163.315C161.186 163.315 160.929 163.058 160.929 162.737Z" fill="#DDE7FE"/>
</g>
<g opacity="0.5">
<path d="M159.083 170.383C159.083 170.383 160.138 169.02 161.567 169.02C162.995 169.02 163.924 170.383 163.924 170.383C163.924 170.383 163.163 171.747 161.567 171.747C159.884 171.747 159.083 170.383 159.083 170.383Z" fill="#DDE7FE"/>
<path d="M160.562 170.382C160.562 169.86 160.985 169.439 161.504 169.439C162.022 169.439 162.446 169.863 162.446 170.382C162.446 170.902 162.022 171.325 161.504 171.325C160.985 171.325 160.562 170.902 160.562 170.382Z" fill="#15156D"/>
<path d="M160.929 170.384C160.929 170.066 161.186 169.807 161.506 169.807C161.826 169.807 162.083 170.064 162.083 170.384C162.083 170.704 161.826 170.961 161.506 170.961C161.186 170.961 160.929 170.704 160.929 170.384Z" fill="#DDE7FE"/>
</g>
<g opacity="0.5">
<path d="M159.083 178.036C159.083 178.036 160.138 176.672 161.567 176.672C162.995 176.672 163.924 178.036 163.924 178.036C163.924 178.036 163.163 179.4 161.567 179.4C159.884 179.4 159.083 178.036 159.083 178.036Z" fill="#DDE7FE"/>
<path d="M160.562 178.035C160.562 177.513 160.985 177.092 161.504 177.092C162.022 177.092 162.446 177.513 162.446 178.035C162.446 178.556 162.022 178.977 161.504 178.977C160.985 178.977 160.562 178.556 160.562 178.035Z" fill="#15156D"/>
<path d="M160.929 178.036C160.929 177.719 161.186 177.459 161.506 177.459C161.826 177.459 162.083 177.716 162.083 178.036C162.083 178.356 161.826 178.611 161.506 178.611C161.186 178.611 160.929 178.354 160.929 178.036Z" fill="#DDE7FE"/>
</g>
<g opacity="0.5">
<path d="M159.083 185.688C159.083 185.688 160.138 184.324 161.567 184.324C162.995 184.324 163.924 185.688 163.924 185.688C163.924 185.688 163.163 187.052 161.567 187.052C159.884 187.052 159.083 185.688 159.083 185.688Z" fill="#DDE7FE"/>
<path d="M160.562 185.687C160.562 185.165 160.985 184.744 161.504 184.744C162.022 184.744 162.446 185.165 162.446 185.687C162.446 186.209 162.022 186.63 161.504 186.63C160.985 186.63 160.562 186.209 160.562 185.687Z" fill="#15156D"/>
<path d="M160.929 185.689C160.929 185.371 161.186 185.111 161.506 185.111C161.826 185.111 162.083 185.368 162.083 185.689C162.083 186.009 161.826 186.266 161.506 186.266C161.186 186.266 160.929 186.009 160.929 185.689Z" fill="#DDE7FE"/>
</g>
<g opacity="0.5">
<path d="M159.083 193.338C159.083 193.338 160.138 191.977 161.567 191.977C162.995 191.977 163.924 193.338 163.924 193.338C163.924 193.338 163.163 194.702 161.567 194.702C159.884 194.702 159.083 193.338 159.083 193.338Z" fill="#DDE7FE"/>
<path d="M160.562 193.337C160.562 192.816 160.985 192.395 161.504 192.395C162.022 192.395 162.446 192.816 162.446 193.337C162.446 193.859 162.022 194.28 161.504 194.28C160.985 194.28 160.562 193.857 160.562 193.337Z" fill="#15156D"/>
<path d="M160.929 193.339C160.929 193.021 161.186 192.762 161.506 192.762C161.826 192.762 162.083 193.019 162.083 193.339C162.083 193.659 161.826 193.916 161.506 193.916C161.186 193.916 160.929 193.659 160.929 193.339Z" fill="#DDE7FE"/>
</g>
<g opacity="0.5">
<path d="M159.083 200.987C159.083 200.987 160.138 199.623 161.567 199.623C162.995 199.623 163.924 200.987 163.924 200.987C163.924 200.987 163.163 202.351 161.567 202.351C159.884 202.351 159.083 200.987 159.083 200.987Z" fill="#DDE7FE"/>
<path d="M160.562 200.986C160.562 200.464 160.985 200.043 161.504 200.043C162.022 200.043 162.446 200.464 162.446 200.986C162.446 201.508 162.022 201.929 161.504 201.929C160.985 201.929 160.562 201.505 160.562 200.986Z" fill="#15156D"/>
<path d="M160.929 200.987C160.929 200.67 161.186 200.41 161.506 200.41C161.826 200.41 162.083 200.667 162.083 200.987C162.083 201.308 161.826 201.565 161.506 201.565C161.186 201.565 160.929 201.308 160.929 200.987Z" fill="#DDE7FE"/>
</g>
<path d="M394.834 192.025H335.654V195.935H394.834V192.025Z" fill="#F99746"/>
<path d="M380.496 184.135H346.112V188.042H380.496V184.135Z" fill="#F99746"/>
<path d="M382.106 168.355H342.314V172.265H382.106V168.355Z" fill="#F99746"/>
<path d="M388.796 176.246H354.412V180.154H388.796V176.246Z" fill="#7A96E5"/>
<path d="M260.027 110.528C251.896 100.132 242.848 99.7663 242.758 99.7637L242.765 99.5293C242.856 99.5293 252.014 99.8999 260.213 110.382L260.029 110.526L260.027 110.528Z" fill="#15156D"/>
<path d="M241.705 99.6452C241.705 99.1108 242.138 98.6797 242.67 98.6797C243.201 98.6797 243.634 99.1133 243.634 99.6452C243.634 100.177 243.201 100.611 242.67 100.611C242.138 100.611 241.705 100.177 241.705 99.6452Z" fill="#F77D48"/>
<path d="M259.153 110.36C259.153 109.826 259.587 109.395 260.118 109.395C260.649 109.395 261.083 109.828 261.083 110.36C261.083 110.892 260.649 111.326 260.118 111.326C259.587 111.326 259.153 110.892 259.153 110.36Z" fill="#F77D48"/>
<path d="M262.458 97.6378L262.279 97.4866C262.339 97.416 268.384 90.5086 281.669 90.6951V90.9296C268.478 90.7506 262.516 97.5698 262.458 97.6403V97.6378Z" fill="#15156D"/>
<path d="M261.71 98.3813C261.294 98.046 261.229 97.4385 261.564 97.0225C261.899 96.6066 262.506 96.541 262.921 96.8763C263.337 97.2116 263.402 97.8191 263.067 98.2351C262.732 98.651 262.125 98.7166 261.71 98.3813Z" fill="#F77D48"/>
<path d="M280.989 91.5024C280.573 91.1671 280.507 90.5596 280.842 90.1436C281.177 89.7276 281.784 89.6621 282.2 89.9974C282.616 90.3327 282.681 90.9402 282.346 91.3562C282.011 91.7721 281.404 91.8377 280.989 91.5024Z" fill="#F77D48"/>
<path d="M324.05 97.6122L323.839 97.4307C323.907 97.3525 330.738 89.6006 346.722 90.6291L346.705 90.9064C330.854 89.888 324.116 97.534 324.048 97.6122H324.05Z" fill="#15156D"/>
<path d="M323.201 98.4473C322.683 98.0288 322.567 97.3103 322.942 96.8415C323.317 96.3726 324.045 96.3347 324.564 96.7532C325.083 97.1717 325.199 97.8902 324.823 98.3591C324.448 98.828 323.72 98.8658 323.201 98.4473Z" fill="#F77D48"/>
<path d="M345.939 91.5391C345.42 91.1206 345.304 90.4021 345.679 89.9332C346.057 89.4643 346.782 89.4265 347.301 89.845C347.82 90.2635 347.936 90.982 347.561 91.4509C347.185 91.9198 346.458 91.9576 345.939 91.5391Z" fill="#F77D48"/>
<path d="M312.821 101.234H296.592V101.469H312.821V101.234Z" fill="#15156D"/>
<path d="M295.627 101.35C295.627 100.816 296.061 100.385 296.592 100.385C297.124 100.385 297.557 100.818 297.557 101.35C297.557 101.882 297.124 102.318 296.592 102.318C296.061 102.318 295.627 101.885 295.627 101.35Z" fill="#FA7267"/>
<path d="M311.856 101.35C311.856 100.816 312.29 100.385 312.821 100.385C313.353 100.385 313.786 100.818 313.786 101.35C313.786 101.882 313.353 102.318 312.821 102.318C312.29 102.318 311.856 101.885 311.856 101.35Z" fill="#FA7267"/>
<path d="M331.708 164.826L330.054 163.17L328.399 164.826L330.054 166.482L331.708 164.826Z" fill="#F77D48"/>
<path d="M287.459 130.742C278.22 130.742 268.472 129.119 260.571 127.339C246.241 124.114 234.72 119.7 234.604 119.655L234.69 119.436C234.803 119.481 246.312 123.888 260.626 127.109C273.827 130.082 292.187 132.62 304.668 127.85C317.201 123.061 330.473 123.754 339.397 125.176C349.064 126.719 355.86 129.429 355.928 129.456L355.84 129.673C355.772 129.645 348.996 126.943 339.354 125.405C330.458 123.986 317.237 123.298 304.751 128.067C299.701 129.998 293.696 130.737 287.459 130.737V130.742Z" fill="#15156D"/>
<path d="M306.383 127.106C306.383 126.572 306.816 126.141 307.348 126.141C307.879 126.141 308.312 126.574 308.312 127.106C308.312 127.638 307.879 128.072 307.348 128.072C306.816 128.072 306.383 127.638 306.383 127.106Z" fill="#17152B"/>
<path d="M279.603 130.503C279.603 129.968 280.036 129.537 280.568 129.537C281.099 129.537 281.532 129.971 281.532 130.503C281.532 131.035 281.099 131.468 280.568 131.468C280.036 131.468 279.603 131.035 279.603 130.503Z" fill="#17152B"/>
<path d="M285.809 154.161C283.816 154.161 281.59 153.818 279.368 152.795L279.466 152.583C286.124 155.646 292.826 152.53 292.892 152.5L292.992 152.712C292.947 152.734 289.869 154.164 285.809 154.164V154.161Z" fill="#15156D"/>
<path d="M293.549 153.358C293.134 153.694 292.527 153.628 292.192 153.215C291.857 152.799 291.922 152.191 292.335 151.856C292.751 151.521 293.358 151.584 293.693 152C294.028 152.415 293.962 153.023 293.549 153.358Z" fill="#F77D48"/>
<path d="M280.023 153.44C279.608 153.776 279.001 153.71 278.666 153.297C278.331 152.881 278.394 152.273 278.809 151.938C279.225 151.603 279.832 151.666 280.167 152.082C280.502 152.497 280.436 153.105 280.023 153.44Z" fill="#F77D48"/>
<path d="M317.725 154.161C315.732 154.161 313.506 153.818 311.284 152.795L311.382 152.583C318.04 155.646 324.742 152.53 324.808 152.5L324.908 152.712C324.863 152.734 321.785 154.164 317.725 154.164V154.161Z" fill="#15156D"/>
<path d="M325.463 153.358C325.047 153.694 324.44 153.628 324.105 153.215C323.77 152.799 323.836 152.191 324.249 151.856C324.665 151.521 325.272 151.584 325.607 152C325.942 152.415 325.876 153.023 325.463 153.358Z" fill="#F77D48"/>
<path d="M311.939 153.44C311.524 153.776 310.917 153.71 310.582 153.297C310.247 152.881 310.312 152.273 310.725 151.938C311.141 151.603 311.748 151.666 312.083 152.082C312.418 152.497 312.353 153.105 311.939 153.44Z" fill="#F77D48"/>
<g opacity="0.3">
<path d="M359.764 118.545V151.64L347.943 150.105C347.943 150.105 346.888 143.129 351.911 140.913C356.58 138.856 353.44 120.905 359.764 118.545Z" fill="#9DB0F4"/>
</g>
<path d="M354.344 129.571C354.344 129.037 354.777 128.605 355.308 128.605C355.84 128.605 356.273 129.039 356.273 129.571C356.273 130.103 355.84 130.537 355.308 130.537C354.777 130.537 354.344 130.103 354.344 129.571Z" fill="#F77D48"/>
<path d="M233.919 119.55C233.919 119.015 234.353 118.584 234.884 118.584C235.416 118.584 235.849 119.018 235.849 119.55C235.849 120.081 235.416 120.515 234.884 120.515C234.353 120.515 233.919 120.081 233.919 119.55Z" fill="#F77D48"/>
<g opacity="0.1">
<path d="M432.86 85.1172H370.504V155.981H432.86V85.1172Z" fill="#DDE7FE"/>
</g>
<path d="M406.37 89.3848H375.933V90.2545H406.37V89.3848Z" fill="#9DB0F4"/>
<path d="M399.483 91.5469H375.933V92.4166H399.483V91.5469Z" fill="#9DB0F4"/>
<path d="M424.045 89.8887H422.397V91.5374H424.045V89.8887Z" fill="#9DB0F4"/>
<path d="M406.37 98.9961H375.933V99.8658H406.37V98.9961Z" fill="#9DB0F4"/>
<path d="M399.483 101.158H375.933V102.028H399.483V101.158Z" fill="#9DB0F4"/>
<path d="M424.045 99.5H422.397V101.149H424.045V99.5Z" fill="#9DB0F4"/>
<path d="M406.37 108.607H375.933V109.477H406.37V108.607Z" fill="#9DB0F4"/>
<path d="M399.483 110.771H375.933V111.641H399.483V110.771Z" fill="#9DB0F4"/>
<path d="M424.045 109.113H422.397V110.762H424.045V109.113Z" fill="#9DB0F4"/>
<path d="M406.37 118.223H375.933V119.092H406.37V118.223Z" fill="#9DB0F4"/>
<path d="M399.483 120.385H375.933V121.254H399.483V120.385Z" fill="#9DB0F4"/>
<path d="M424.045 118.725H422.397V120.373H424.045V118.725Z" fill="#9DB0F4"/>
<path d="M406.37 127.832H375.933V128.702H406.37V127.832Z" fill="#9DB0F4"/>
<path d="M399.483 129.994H375.933V130.864H399.483V129.994Z" fill="#9DB0F4"/>
<path d="M424.045 128.338H422.397V129.987H424.045V128.338Z" fill="#9DB0F4"/>
<path d="M424.045 137.059H422.397V138.707H424.045V137.059Z" fill="#9DB0F4"/>
<path d="M406.37 137.445H375.933V138.315H406.37V137.445Z" fill="#9DB0F4"/>
<path d="M399.483 139.607H375.933V140.477H399.483V139.607Z" fill="#9DB0F4"/>
<path d="M406.37 147.059H375.933V147.928H406.37V147.059Z" fill="#9DB0F4"/>
<path d="M399.483 149.223H375.933V150.092H399.483V149.223Z" fill="#9DB0F4"/>
<path d="M424.045 147.566H422.397V149.215H424.045V147.566Z" fill="#9DB0F4"/>
<path d="M396.892 297.422C396.892 297.422 392.539 308.187 394.073 309.311C395.607 310.435 400.871 305.862 402.267 301.037C403.662 296.212 396.889 297.422 396.889 297.422H396.892Z" fill="#EA9963"/>
<path d="M485.823 370.04C466.567 370.04 446.464 370.04 427.465 370.032C426.732 368.263 425.954 366.405 425.143 364.514C419.873 352.229 413.261 338.399 409.581 336.753C402.811 333.725 398.735 336.375 390.31 326.533C381.884 316.691 376.527 313.346 379.837 311.072C383.146 308.803 394.073 317.337 397.103 316.969C399.536 316.671 400.803 310.77 400.604 304.535C400.554 302.904 400.4 301.253 400.141 299.673C400.012 298.873 399.854 298.094 399.672 297.348C399.383 296.178 399.028 295.084 398.602 294.111C397.773 292.221 397.849 290.922 398.478 290.055C400.368 287.451 407.274 288.706 409.881 289.324C411.045 289.601 414.644 287.418 417.165 288.661C421.077 290.59 423.357 288.364 425.954 290.037C427.79 291.22 431.573 291.774 432.875 293.481C435.356 296.728 435.968 303.6 438.386 309.95C440.623 315.827 441.401 321.993 449.074 332.402C452.492 337.038 463.076 347.797 473.763 358.305C477.907 362.376 482.065 366.415 485.826 370.037L485.823 370.04Z" fill="#FFB27D"/>
<path d="M398.428 290.041C398.428 290.041 382.363 303.205 384.449 304.973C386.537 306.74 391.831 305.003 400.498 299.447C409.166 293.888 398.425 290.044 398.425 290.044L398.428 290.041Z" fill="#FFB27D"/>
<path d="M490.639 370.041H485.823C466.567 370.041 446.464 370.041 427.465 370.033H421.787L421.127 368.667C421.127 368.667 422.465 366.854 425.14 364.515C432.16 358.369 448.381 348.577 473.761 358.308C474.889 358.742 476.035 359.211 477.201 359.725L490.639 370.041Z" fill="#2B478B"/>
<path d="M228.079 304.141C228.079 304.141 230.867 315.412 229.19 316.307C227.512 317.202 222.946 311.933 222.245 306.957C221.545 301.983 228.079 304.138 228.079 304.138V304.141Z" fill="#EA9963"/>
<path d="M230.484 333.895C220.754 342.444 217.094 339.247 209.964 341.287C206.09 342.396 197.591 355.152 190.639 366.569C190.045 367.545 189.463 368.51 188.894 369.461C165.942 369.377 142.943 369.297 121.755 369.219C127.498 365.117 135.452 359.389 143.379 353.548C155.444 344.657 167.446 335.501 171.486 331.392C180.551 322.175 182.191 316.183 185.236 310.68C188.481 304.813 188.385 297.911 192.866 297.979C195.075 298.012 197.022 295.128 199.06 294.193C201.866 292.907 204.548 295.768 208.694 294.415C211.367 293.542 215.029 295.904 216.218 295.793C218.507 295.584 224.046 294.735 226.555 296.03C227.948 296.746 228.406 298.12 226.857 300.629C226.298 301.531 225.792 302.565 225.341 303.682C225.087 304.314 224.847 304.972 224.628 305.653C224.112 307.259 223.696 308.965 223.399 310.662C222.321 316.806 222.744 322.828 225.112 323.466C228.059 324.26 240.257 316.067 243.214 318.785C246.172 321.5 240.217 325.347 230.487 333.895H230.484Z" fill="#FFB27D"/>
<path d="M226.298 295.953C226.298 295.953 250.559 303.188 249.3 305.613C248.038 308.041 235.341 307.625 225.215 305.772C215.09 303.919 226.298 295.953 226.298 295.953Z" fill="#FFB27D"/>
<path d="M192.899 369.474C191.564 369.469 190.229 369.464 188.894 369.459C165.942 369.376 142.943 369.295 121.755 369.217C119.012 369.207 116.302 369.197 113.624 369.189L139.777 354.462C141.003 354.119 142.2 353.817 143.379 353.549C169.884 347.502 184.561 359.494 190.642 366.57C191.606 367.692 192.357 368.693 192.901 369.477L192.899 369.474Z" fill="#2B478B"/>
<path d="M92.169 241.527L88.4287 242.129L95.5137 286.252L99.254 285.65L92.169 241.527Z" fill="#B5453C"/>
<path d="M89.0401 234.066L88.418 242.136L92.1584 241.533L89.0401 234.066Z" fill="#EFCBAB"/>
<path d="M132.699 245.948L128.974 245.256L120.822 289.194L124.546 289.886L132.699 245.948Z" fill="#B5453C"/>
<path d="M132.256 237.871L128.958 245.26L132.684 245.953L132.256 237.871Z" fill="#EFCBAB"/>
<path d="M127.98 233.059L124.256 232.367L116.104 276.305L119.828 276.997L127.98 233.059Z" fill="#B5453C"/>
<path d="M127.533 224.984L124.236 232.373L127.961 233.067L127.533 224.984Z" fill="#EFCBAB"/>
<path d="M132.283 260.162H102.443V303.202H132.283V260.162Z" fill="#12793C"/>
<path d="M117.362 260.162H87.5215V303.202H117.362V260.162Z" fill="#22E974"/>
<path d="M295 233.292C294.325 233.213 293.675 233.159 293 233.106C292.325 233.053 291.675 233.027 291 233.027C290.662 233.027 290.325 233 289.961 233C289.649 233 289.312 233 289 233.027C288.325 233.027 287.675 233.08 287 233.106C286.325 233.159 285.675 233.213 285 233.292C284.325 233.372 283.675 233.452 283 233.558V235.63C283.675 235.524 284.325 235.418 285 235.338C285.649 235.258 286.325 235.205 287 235.152C287.675 235.099 288.325 235.072 289 235.072C289.312 235.072 289.649 235.072 289.961 235.072C290.299 235.072 290.636 235.072 291 235.072C291.675 235.099 292.325 235.126 293 235.152C293.675 235.205 294.325 235.258 295 235.338C295.675 235.418 296.325 235.524 297 235.63V233.558C296.351 233.452 295.675 233.372 295 233.292Z" fill="black"/>
<path d="M295 237.491C294.351 237.411 293.675 237.331 293 237.305C292.325 237.252 291.675 237.225 291 237.198C290.662 237.198 290.325 237.172 289.961 237.172C289.649 237.172 289.312 237.172 289 237.172C288.325 237.198 287.675 237.225 287 237.278C286.325 237.331 285.675 237.384 285 237.464C284.325 237.544 283.649 237.65 283 237.756V239.829V243.974H285V239.537C285.675 239.457 286.325 239.377 287 239.324V243.974H288.974V239.244C289.286 239.244 289.623 239.218 289.935 239.218C290.273 239.218 290.61 239.218 290.974 239.244V244H292.974V239.324C293.649 239.377 294.299 239.43 294.974 239.537V243.974H296.974V239.855V237.783C296.351 237.677 295.675 237.57 295 237.491Z" fill="black"/>
</svg>
