<svg width="35" height="35" viewBox="0 0 35 35" fill="none" xmlns="http://www.w3.org/2000/svg">
<path d="M0 0V34.8797H35V0H0ZM29.1667 3.87553C30.24 3.87553 31.1111 4.74364 31.1111 5.81329C31.1111 6.88293 30.24 7.75105 29.1667 7.75105C28.0933 7.75105 27.2222 6.88293 27.2222 5.81329C27.2222 4.74364 28.0933 3.87553 29.1667 3.87553ZM17.5 7.75105C22.8686 7.75105 27.2222 12.0897 27.2222 17.4399C27.2222 22.79 22.8686 27.1287 17.5 27.1287C12.1314 27.1287 7.77778 22.79 7.77778 17.4399C7.77778 12.0897 12.1314 7.75105 17.5 7.75105ZM17.5 11.6266C15.9529 11.6266 14.4692 12.239 13.3752 13.3292C12.2812 14.4195 11.6667 15.8981 11.6667 17.4399C11.6667 18.9816 12.2812 20.4603 13.3752 21.5505C14.4692 22.6407 15.9529 23.2532 17.5 23.2532C19.0471 23.2532 20.5308 22.6407 21.6248 21.5505C22.7188 20.4603 23.3333 18.9816 23.3333 17.4399C23.3333 15.8981 22.7188 14.4195 21.6248 13.3292C20.5308 12.239 19.0471 11.6266 17.5 11.6266Z" fill="black"/>
</svg>
