<svg width="35" height="35" viewBox="0 0 35 35" fill="none" xmlns="http://www.w3.org/2000/svg">
<path d="M35 0H0V34.8797H35V0ZM11.6667 27.1287H6.76083V13.5643H11.6667V27.1287ZM9.12722 11.0782C7.62806 11.0782 6.62667 10.0822 6.62667 8.75287C6.62667 7.42357 7.62611 6.42756 9.2925 6.42756C10.7917 6.42756 11.7931 7.42357 11.7931 8.75287C11.7931 10.0822 10.7936 11.0782 9.12722 11.0782ZM29.1667 27.1287H24.4183V19.7148C24.4183 17.6646 23.1525 17.1918 22.6781 17.1918C22.2036 17.1918 20.6208 17.5077 20.6208 19.7148C20.6208 20.0307 20.6208 27.1287 20.6208 27.1287H15.715V13.5643H20.6208V15.4575C21.2528 14.353 22.5186 13.5643 24.8928 13.5643C27.2669 13.5643 29.1667 15.4575 29.1667 19.7148V27.1287Z" fill="black"/>
</svg>
