<svg width="100" height="100" viewBox="0 0 100 100" fill="none" xmlns="http://www.w3.org/2000/svg">
<path d="M99.7 100H0V0H99.7V100Z" fill="black"/>
<path d="M69.2 30.4C66.6 30.1 64.1 29.9 61.5 29.7C58.9 29.5 56.4 29.4 53.8 29.4C52.5 29.4 51.2 29.3 49.8 29.3C48.6 29.3 47.3 29.3 46.1 29.4C43.5 29.4 41 29.6 38.4 29.7C35.8 29.9 33.3 30.1 30.7 30.4C28.1 30.7 25.6 31 23 31.4V39.2C25.6 38.8 28.1 38.4 30.7 38.1C33.2 37.8 35.8 37.6 38.4 37.4C41 37.2 43.5 37.1 46.1 37.1C47.3 37.1 48.6 37.1 49.8 37.1C51.1 37.1 52.4 37.1 53.8 37.1C56.4 37.2 58.9 37.3 61.5 37.4C64.1 37.6 66.6 37.8 69.2 38.1C71.8 38.4 74.3 38.8 76.9 39.2V31.4C74.4 31 71.8 30.7 69.2 30.4Z" fill="white"/>
<path d="M69.2 46.2C66.7 45.9 64.1 45.6 61.5 45.5C58.9 45.3 56.4 45.2 53.8 45.1C52.5 45.1 51.2 45 49.8 45C48.6 45 47.3 45 46.1 45C43.5 45.1 41 45.2 38.4 45.4C35.8 45.6 33.3 45.8 30.7 46.1C28.1 46.4 25.5 46.8 23 47.2V55V70.6H30.7V53.9C33.3 53.6 35.8 53.3 38.4 53.1V70.6H46V52.8C47.2 52.8 48.5 52.7 49.7 52.7C51 52.7 52.3 52.7 53.7 52.8V70.7H61.4V53.1C64 53.3 66.5 53.5 69.1 53.9V70.6H76.8V55.1V47.3C74.4 46.9 71.8 46.5 69.2 46.2Z" fill="white"/>
</svg>
