<svg width="170" height="34" viewBox="0 0 170 34" fill="none" xmlns="http://www.w3.org/2000/svg">
<path d="M34 34H0V0H34V34Z" fill="black"/>
<path d="M23.5988 10.3359C22.7121 10.2339 21.8596 10.1659 20.9729 10.0979C20.0862 10.0299 19.2337 9.99591 18.347 9.99591C17.9037 9.99591 17.4604 9.96191 16.9829 9.96191C16.5737 9.96191 16.1304 9.96191 15.7211 9.99591C14.8345 9.99591 13.9819 10.0639 13.0953 10.0979C12.2086 10.1659 11.356 10.2339 10.4694 10.3359C9.58272 10.4379 8.73017 10.5399 7.84351 10.6759V13.3279C8.73017 13.1919 9.58272 13.0559 10.4694 12.9539C11.3219 12.8519 12.2086 12.7839 13.0953 12.7159C13.9819 12.6479 14.8345 12.6139 15.7211 12.6139C16.1304 12.6139 16.5737 12.6139 16.9829 12.6139C17.4263 12.6139 17.8696 12.6139 18.347 12.6139C19.2337 12.6479 20.0862 12.6819 20.9729 12.7159C21.8596 12.7839 22.7121 12.8519 23.5988 12.9539C24.4854 13.0559 25.338 13.1919 26.2247 13.3279V10.6759C25.3721 10.5399 24.4854 10.4379 23.5988 10.3359Z" fill="white"/>
<path d="M23.5988 15.7078C22.7462 15.6058 21.8596 15.5038 20.9729 15.4698C20.0862 15.4018 19.2337 15.3678 18.347 15.3338C17.9037 15.3338 17.4604 15.2998 16.9829 15.2998C16.5737 15.2998 16.1304 15.2998 15.7211 15.2998C14.8345 15.3338 13.9819 15.3678 13.0953 15.4358C12.2086 15.5038 11.356 15.5718 10.4694 15.6738C9.58272 15.7758 8.69606 15.9118 7.84351 16.0478V18.6998V24.0038H10.4694V18.3258C11.356 18.2238 12.2086 18.1218 13.0953 18.0538V24.0038H15.687V17.9518C16.0963 17.9518 16.5396 17.9178 16.9488 17.9178C17.3922 17.9178 17.8355 17.9178 18.3129 17.9518V24.0378H20.9388V18.0538C21.8255 18.1218 22.678 18.1898 23.5647 18.3258V24.0038H26.1905V18.7338V16.0818C25.3721 15.9458 24.4854 15.8098 23.5988 15.7078Z" fill="white"/>
<path d="M43.5625 9.96729H49.9986C52.8014 9.96729 54.9813 11.6875 54.9813 14.5546C54.9813 17.3879 52.8014 19.1082 49.9986 19.1082H47.2304V24.2014H43.5625V9.96729ZM47.265 12.632V16.4435H49.3757C50.4484 16.4435 51.3481 15.7689 51.3481 14.5546C51.3481 13.3066 50.4484 12.632 49.3757 12.632H47.265Z" fill="black"/>
<path d="M56.5039 14.386H60.1026V14.9931C60.7946 14.4534 61.5905 14.1836 62.6631 14.1836C63.5974 14.1836 64.3241 14.4197 64.8085 14.9257L62.7324 17.6241C62.4901 17.388 62.1095 17.2193 61.5905 17.2193C60.6562 17.2193 60.1026 17.759 60.1026 18.8384V24.1677H56.5039V14.386Z" fill="black"/>
<path d="M64.5315 19.2769C64.5315 16.3761 66.9191 14.1499 70.1717 14.1499C73.4243 14.1499 75.8119 16.3424 75.8119 19.2769C75.8119 22.2451 73.4243 24.4376 70.2063 24.4376C66.9537 24.4376 64.5315 22.2114 64.5315 19.2769ZM72.144 19.2769C72.144 18.0626 71.3482 17.2531 70.1717 17.2531C68.9952 17.2531 68.1994 18.0626 68.1994 19.2769C68.1994 20.4574 68.9952 21.3007 70.1717 21.3007C71.3482 21.3344 72.144 20.4912 72.144 19.2769Z" fill="black"/>
<path d="M76.5732 19.3105C76.5732 16.3423 78.5802 14.1835 81.5214 14.1835C82.4211 14.1835 83.2515 14.4196 83.9436 14.8581V9.5625H87.5422V24.2014H84.0128V23.628C83.3207 24.1002 82.4557 24.4038 81.556 24.4038C78.6148 24.4038 76.5732 22.2788 76.5732 19.3105ZM84.1512 19.2768C84.1512 18.0962 83.3553 17.2867 82.1789 17.2867C81.037 17.2867 80.2065 18.13 80.2065 19.2768C80.2065 20.4573 81.037 21.3006 82.1789 21.3006C83.3553 21.3006 84.1512 20.4911 84.1512 19.2768Z" fill="black"/>
<path d="M89.3762 20.0861V14.3857H92.9749V20.0524C92.9749 20.8619 93.4939 21.3679 94.2898 21.3679C95.051 21.3679 95.6047 20.8619 95.6047 20.0524V14.3857H99.2033V20.0524C99.2033 22.6496 97.1964 24.4036 94.3244 24.4036C91.4178 24.4373 89.3762 22.6159 89.3762 20.0861Z" fill="black"/>
<path d="M100.276 19.3106C100.276 16.3424 102.733 14.1499 105.985 14.1499C107.542 14.1499 108.857 14.6559 109.895 15.6678L107.646 17.8602C107.231 17.4555 106.712 17.2531 105.985 17.2531C104.809 17.2531 103.909 18.0626 103.909 19.2769C103.909 20.4912 104.809 21.3007 105.985 21.3007C106.781 21.3007 107.3 21.0309 107.681 20.5924L109.965 22.7848C108.823 23.8642 107.577 24.4039 105.916 24.4039C102.733 24.4376 100.276 22.2789 100.276 19.3106Z" fill="black"/>
<path d="M112.491 17.3205H110.276V14.4197H112.491V10.3721H116.089V14.4197H118.304V17.3205H116.089V24.2352H112.491V17.3205Z" fill="black"/>
<path d="M124.671 11.249H125.743L131.141 24.2014H129.619L128.235 20.8284H122.11L120.726 24.2014H119.204L124.671 11.249ZM127.716 19.6141L125.19 13.4415L122.629 19.6141H127.716Z" fill="black"/>
<path d="M133.218 15.364H134.567V16.5445C135.121 15.6675 135.986 15.1953 137.162 15.1953C138.062 15.1953 138.789 15.4989 139.446 16.1735L138.546 17.0842C138.096 16.6457 137.612 16.4096 136.92 16.4096C135.536 16.4096 134.567 17.3203 134.567 19.0406V24.2013H133.218V15.364Z" fill="black"/>
<path d="M139.965 19.7826C139.965 17.1854 142.007 15.1953 144.636 15.1953C147.093 15.1953 148.893 16.983 148.893 19.479C148.893 19.6814 148.858 19.9175 148.789 20.2886H141.349C141.557 22.0425 142.872 23.1556 144.775 23.1556C145.882 23.1556 146.816 22.7509 147.474 21.9751L148.339 22.8521C147.474 23.8302 146.159 24.4036 144.74 24.4036C142.007 24.4036 139.965 22.4136 139.965 19.7826ZM141.349 19.1417H147.543C147.405 17.4552 146.332 16.4096 144.602 16.4096C142.802 16.4096 141.591 17.489 141.349 19.1417Z" fill="black"/>
<path d="M150.934 15.364H152.284V16.6794C152.906 15.7687 154.014 15.1953 155.329 15.1953C157.439 15.1953 158.893 16.8481 158.893 18.8044V24.235H157.508V19.0068C157.508 17.4552 156.47 16.3759 154.948 16.3759C153.391 16.3759 152.249 17.4552 152.249 18.9731V24.2013H150.899V15.364H150.934Z" fill="black"/>
<path d="M160.865 19.8163C160.865 17.1854 162.803 15.1953 165.363 15.1953C166.782 15.1953 167.959 15.8025 168.651 16.8481V15.364H170V24.2013H168.651V22.7171C167.993 23.7628 166.817 24.3699 165.398 24.3699C162.837 24.4036 160.865 22.4136 160.865 19.8163ZM168.72 19.7826C168.72 17.7588 167.439 16.4096 165.571 16.4096C163.633 16.4096 162.249 17.8263 162.249 19.7826C162.249 21.739 163.633 23.1219 165.606 23.1219C167.474 23.1556 168.72 21.8064 168.72 19.7826Z" fill="black"/>
</svg>
