<svg width="28" height="28" viewBox="0 0 28 28" fill="none" xmlns="http://www.w3.org/2000/svg">
<path d="M6.32911 9.86998L2.28516 14L6.32911 18.13L8.33967 16.065L6.32911 14L8.33967 11.935L6.32911 9.86998ZM21.0884 9.86998L19.0779 11.935L21.0884 14L19.0779 16.065L21.0884 18.13L25.1324 14L21.0884 9.86998ZM13.7088 21.5366L11.6868 19.4833L9.66481 21.5366L13.7088 25.6666L17.7527 21.5366L15.7307 19.4833L13.7088 21.5366ZM9.66481 6.46331L11.6868 8.51665L13.7088 6.46331L15.7307 8.51665L17.7527 6.46331L13.7088 2.33331L9.66481 6.46331Z" fill="#322F37"/>
<path d="M13.7083 17.5C15.6011 17.5 17.1354 15.933 17.1354 14C17.1354 12.067 15.6011 10.5 13.7083 10.5C11.8156 10.5 10.2812 12.067 10.2812 14C10.2812 15.933 11.8156 17.5 13.7083 17.5Z" fill="#322F37"/>
</svg>
