<svg width="43" height="43" viewBox="0 0 43 43" fill="none" xmlns="http://www.w3.org/2000/svg">
<g clip-path="url(#clip0_1148_29570)">
<path d="M10.4304 15.305L4.3645 21.5L10.4304 27.695L13.4463 24.5975L10.4304 21.5L13.4463 18.4025L10.4304 15.305ZM32.5694 15.305L29.5536 18.4025L32.5694 21.5L29.5536 24.5975L32.5694 27.695L38.6353 21.5L32.5694 15.305ZM21.4999 32.805L18.4669 29.725L15.434 32.805L21.4999 39L27.5659 32.805L24.5329 29.725L21.4999 32.805ZM15.434 10.195L18.4669 13.275L21.4999 10.195L24.5329 13.275L27.5659 10.195L21.4999 4L15.434 10.195Z" fill="white"/>
<path d="M21.5 26.75C24.3391 26.75 26.6406 24.3995 26.6406 21.5C26.6406 18.6005 24.3391 16.25 21.5 16.25C18.6609 16.25 16.3594 18.6005 16.3594 21.5C16.3594 24.3995 18.6609 26.75 21.5 26.75Z" fill="white"/>
</g>
<defs>
<clipPath id="clip0_1148_29570">
<rect width="41.125" height="42" fill="white" transform="translate(0.9375 0.5)"/>
</clipPath>
</defs>
</svg>
