<svg width="35" height="35" viewBox="0 0 35 35" fill="none" xmlns="http://www.w3.org/2000/svg">
<path d="M35 25C35 30.5228 30.5228 35 25 35H10C4.47715 35 0 30.5228 0 25V10C0 4.47715 4.47715 0 10 0H25C30.5228 0 35 4.47715 35 10V25Z" fill="black"/>
<path d="M35 25C35 30.5228 30.5228 35 25 35H10C4.47715 35 0 30.5228 0 25V10C0 4.47715 4.47715 0 10 0H25C30.5228 0 35 4.47715 35 10V25Z" fill="black"/>
<path d="M10.4121 27.2197C9.77734 27.2197 9.45996 27.0391 9.45996 26.6777C9.45996 26.3945 9.63574 26.2529 9.9873 26.2529L10.7051 26.3262C11.291 26.3262 11.6865 25.999 11.8916 25.3447C12.0576 24.7881 12.1406 23.792 12.1406 22.3564V12.0146C12.1406 10.5791 12.0723 9.6416 11.9355 9.20215C11.7988 8.75293 11.6328 8.4502 11.4375 8.29395C11.252 8.12793 11.0078 8.04492 10.7051 8.04492L9.9873 8.10352C9.63574 8.10352 9.45996 7.96191 9.45996 7.67871C9.45996 7.31738 9.72852 7.13672 10.2656 7.13672C10.8027 7.13672 11.3105 7.17578 11.7891 7.25391C12.2773 7.33203 12.7852 7.37109 13.3125 7.37109C13.8398 7.37109 14.3428 7.33203 14.8213 7.25391C15.3096 7.17578 15.9297 7.13672 16.6816 7.13672C17.4434 7.13672 18.2588 7.25879 19.1279 7.50293C19.9971 7.74707 20.7295 8.09375 21.3252 8.54297C22.5654 9.4707 23.1855 10.7012 23.1855 12.2344C23.1855 13.9336 22.4873 15.3984 21.0908 16.6289C20.6416 17.0195 20.1436 17.3516 19.5967 17.625L24.3574 24.5391C24.8945 25.3301 25.4854 25.8086 26.1299 25.9746C26.3154 26.0234 26.5498 26.0625 26.833 26.0918C27.3311 26.1406 27.5801 26.3066 27.5801 26.5898C27.5801 26.8633 27.3115 27 26.7744 27H23.9619C23.2881 27 22.6777 26.5605 22.1309 25.6816L18.4395 19.7783C18.1074 19.2607 17.79 18.8945 17.4873 18.6797C17.1846 18.4551 16.7158 18.3428 16.0811 18.3428C15.4561 18.3428 14.9092 18.3574 14.4404 18.3867V22.3564C14.4404 23.8311 14.5039 24.7832 14.6309 25.2129C14.7676 25.6328 14.9287 25.9258 15.1143 26.0918C15.3096 26.248 15.5635 26.3262 15.876 26.3262L16.5791 26.2529C16.9307 26.2529 17.1064 26.3945 17.1064 26.6777C17.1064 27.0391 16.7939 27.2197 16.1689 27.2197C15.8467 27.2197 15.5049 27.1904 15.1436 27.1318C13.9717 26.9463 12.9658 26.9121 12.126 27.0293C11.2959 27.1562 10.7246 27.2197 10.4121 27.2197ZM14.4404 17.0977C15.0752 17.166 15.6855 17.2002 16.2715 17.2002H17.1943C18.1416 17.2002 18.9424 16.8779 19.5967 16.2334C20.3584 15.4814 20.7393 14.4561 20.7393 13.1572C20.7393 11.5947 20.2656 10.3594 19.3184 9.45117C18.4297 8.5918 17.2871 8.16211 15.8906 8.16211C15.3926 8.16211 15.0264 8.23047 14.792 8.36719C14.5576 8.50391 14.4404 8.73828 14.4404 9.07031V17.0977Z" fill="white"/>
</svg>
