<svg width="18" height="23" viewBox="0 0 18 23" fill="none" xmlns="http://www.w3.org/2000/svg">
<path d="M9 22.5536L2.636 16.2115C1.37734 14.9572 0.520186 13.359 0.172928 11.6192C-0.17433 9.87937 0.00390684 8.07599 0.685098 6.43712C1.36629 4.79824 2.51984 3.39747 3.99988 2.41194C5.47992 1.42641 7.21997 0.900391 9 0.900391C10.78 0.900391 12.5201 1.42641 14.0001 2.41194C15.4802 3.39747 16.6337 4.79824 17.3149 6.43712C17.9961 8.07599 18.1743 9.87937 17.8271 11.6192C17.4798 13.359 16.6227 14.9572 15.364 16.2115L9 22.5536ZM13.95 14.8024C14.9289 13.8267 15.5955 12.5837 15.8655 11.2306C16.1356 9.87738 15.9969 8.47479 15.4671 7.20014C14.9373 5.9255 14.04 4.83605 12.8889 4.06955C11.7378 3.30306 10.3844 2.89394 9 2.89394C7.61556 2.89394 6.26221 3.30306 5.11108 4.06955C3.95996 4.83605 3.06275 5.9255 2.53291 7.20014C2.00308 8.47479 1.86442 9.87738 2.13445 11.2306C2.40449 12.5837 3.07111 13.8267 4.05 14.8024L9 19.7354L13.95 14.8024ZM9 11.8625C8.46957 11.8625 7.96086 11.6525 7.58579 11.2787C7.21071 10.9049 7 10.398 7 9.86938C7 9.34077 7.21071 8.83381 7.58579 8.46003C7.96086 8.08624 8.46957 7.87625 9 7.87625C9.53043 7.87625 10.0391 8.08624 10.4142 8.46003C10.7893 8.83381 11 9.34077 11 9.86938C11 10.398 10.7893 10.9049 10.4142 11.2787C10.0391 11.6525 9.53043 11.8625 9 11.8625Z" fill="black"/>
</svg>
