<svg width="29" height="28" viewBox="0 0 29 28" fill="none" xmlns="http://www.w3.org/2000/svg">
<g clip-path="url(#clip0_2837_13484)">
<path d="M23.8337 9.33333H20.5553C20.0303 8.42333 19.307 7.64167 18.432 7.04667L20.3337 5.145L18.6887 3.5L16.157 6.03167C15.6203 5.90333 15.072 5.83333 14.5003 5.83333C13.9287 5.83333 13.3803 5.90333 12.8553 6.03167L10.312 3.5L8.66699 5.145L10.557 7.04667C9.69366 7.64167 8.97033 8.42333 8.44533 9.33333H5.16699V11.6667H7.60533C7.54699 12.0517 7.50033 12.4367 7.50033 12.8333V14H5.16699V16.3333H7.50033V17.5C7.50033 17.8967 7.54699 18.2817 7.60533 18.6667H5.16699V21H8.44533C9.65866 23.0883 11.9103 24.5 14.5003 24.5C17.0903 24.5 19.342 23.0883 20.5553 21H23.8337V18.6667H21.3953C21.4537 18.2817 21.5003 17.8967 21.5003 17.5V16.3333H23.8337V14H21.5003V12.8333C21.5003 12.4367 21.4537 12.0517 21.3953 11.6667H23.8337V9.33333ZM16.8337 18.6667H12.167V16.3333H16.8337V18.6667ZM16.8337 14H12.167V11.6667H16.8337V14Z" fill="#322F37"/>
</g>
<defs>
<clipPath id="clip0_2837_13484">
<rect width="28" height="28" fill="white" transform="translate(0.5)"/>
</clipPath>
</defs>
</svg>
