<svg width="42" height="43" viewBox="0 0 42 43" fill="none" xmlns="http://www.w3.org/2000/svg">
<g clip-path="url(#clip0_1148_29567)">
<path d="M35 14.5H30.0825C29.295 13.135 28.21 11.9625 26.8975 11.07L29.75 8.2175L27.2825 5.75L23.485 9.5475C22.68 9.355 21.8575 9.25 21 9.25C20.1425 9.25 19.32 9.355 18.5325 9.5475L14.7175 5.75L12.25 8.2175L15.085 11.07C13.79 11.9625 12.705 13.135 11.9175 14.5H7V18H10.6575C10.57 18.5775 10.5 19.155 10.5 19.75V21.5H7V25H10.5V26.75C10.5 27.345 10.57 27.9225 10.6575 28.5H7V32H11.9175C13.7375 35.1325 17.115 37.25 21 37.25C24.885 37.25 28.2625 35.1325 30.0825 32H35V28.5H31.3425C31.43 27.9225 31.5 27.345 31.5 26.75V25H35V21.5H31.5V19.75C31.5 19.155 31.43 18.5775 31.3425 18H35V14.5ZM24.5 28.5H17.5V25H24.5V28.5ZM24.5 21.5H17.5V18H24.5V21.5Z" fill="white"/>
</g>
<defs>
<clipPath id="clip0_1148_29567">
<rect width="42" height="42" fill="white" transform="translate(0 0.5)"/>
</clipPath>
</defs>
</svg>
